<?xml version="1.0" encoding="UTF-8" standalone="no"?>
<!DOCTYPE svg PUBLIC "-//W3C//DTD SVG 1.1//EN" "http://www.w3.org/Graphics/SVG/1.1/DTD/svg11.dtd">
<svg width="100%" height="100%" viewBox="0 0 97 97" version="1.1" xmlns="http://www.w3.org/2000/svg" xmlns:xlink="http://www.w3.org/1999/xlink" xml:space="preserve" xmlns:serif="http://www.serif.com/" style="fill-rule:evenodd;clip-rule:evenodd;stroke-linejoin:round;stroke-miterlimit:2;">
    <g transform="matrix(1,0,0,1,-124.491,-335.531)">
        <g id="icon" transform="matrix(6.12323e-17,1,-1,6.12323e-17,560.8,197.176)">
            <g id="logo-group">
                <path id="icon1" serif:id="icon" d="M192.4,339.36C173.112,339.363 157.119,339.38 156.861,339.397C156.604,339.414 156.181,339.47 155.923,339.521C155.665,339.572 155.256,339.678 155.015,339.756C154.774,339.835 154.362,340.002 154.098,340.129C153.834,340.255 153.412,340.496 153.16,340.664C152.907,340.832 152.54,341.111 152.342,341.284C152.145,341.457 151.865,341.729 151.721,341.89C151.578,342.05 151.353,342.324 151.223,342.498C151.093,342.673 150.894,342.97 150.782,343.159C150.669,343.348 150.487,343.705 150.376,343.952C150.266,344.198 150.113,344.621 150.036,344.89C149.958,345.159 149.86,345.557 149.818,345.775L149.74,346.171L149.719,384.973L164.888,384.974C174.917,384.974 180.226,384.989 180.557,385.017C180.832,385.041 181.224,385.088 181.429,385.123C181.633,385.158 182.008,385.241 182.263,385.306C182.517,385.372 182.913,385.493 183.142,385.576C183.371,385.658 183.803,385.845 184.101,385.992C184.399,386.139 184.806,386.362 185.006,386.487C185.205,386.613 185.552,386.854 185.777,387.022C186.002,387.191 186.44,387.583 186.749,387.892C187.059,388.202 187.45,388.639 187.619,388.864C187.787,389.09 188.028,389.436 188.154,389.636C188.28,389.835 188.502,390.242 188.647,390.54C188.792,390.838 188.978,391.265 189.061,391.489C189.144,391.713 189.265,392.107 189.331,392.365C189.397,392.623 189.481,393.012 189.518,393.23C189.554,393.448 189.603,393.842 189.626,394.106C189.653,394.415 189.668,399.962 189.668,409.754L189.668,424.922L208.83,424.922C221.992,424.922 228.119,424.908 228.398,424.877C228.621,424.853 229.019,424.786 229.282,424.727C229.545,424.669 229.936,424.558 230.149,424.48C230.363,424.403 230.691,424.268 230.88,424.179C231.068,424.091 231.398,423.909 231.615,423.775C231.831,423.641 232.189,423.385 232.411,423.207C232.633,423.028 232.958,422.729 233.135,422.542C233.311,422.355 233.536,422.096 233.636,421.967C233.735,421.838 233.923,421.568 234.054,421.368C234.184,421.167 234.392,420.792 234.516,420.534C234.64,420.275 234.8,419.888 234.871,419.673C234.943,419.458 235.047,419.062 235.103,418.793C235.159,418.523 235.223,418.033 235.245,417.703C235.272,417.318 235.286,404.591 235.286,382.137C235.286,360.322 235.271,346.951 235.246,346.588C235.224,346.267 235.167,345.807 235.119,345.566C235.071,345.325 234.958,344.905 234.867,344.633C234.777,344.36 234.611,343.947 234.499,343.715C234.387,343.483 234.178,343.116 234.035,342.898C233.892,342.681 233.692,342.399 233.59,342.273C233.488,342.146 233.224,341.858 233.001,341.632C232.78,341.407 232.429,341.095 232.222,340.94C232.016,340.785 231.682,340.559 231.479,340.438C231.277,340.317 230.93,340.138 230.708,340.041C230.486,339.943 230.124,339.806 229.903,339.735C229.682,339.665 229.313,339.569 229.082,339.522C228.851,339.474 228.393,339.417 228.065,339.395C227.683,339.369 214.839,339.356 192.399,339.36L192.4,339.36ZM207.61,355.918L217.879,355.929L218.238,356.058C218.436,356.128 218.729,356.274 218.89,356.381C219.051,356.488 219.293,356.694 219.428,356.839C219.562,356.984 219.734,357.208 219.811,357.336C219.887,357.464 219.994,357.698 220.049,357.856C220.104,358.014 220.168,358.312 220.192,358.517C220.22,358.761 220.235,362.315 220.235,368.825L220.235,378.76L214.355,378.76L214.355,365.895L197.488,382.763L195.434,380.709C194.305,379.579 193.38,378.636 193.38,378.613C193.38,378.591 197.166,374.786 201.793,370.159L210.208,361.746L197.328,361.746L197.328,355.906L207.61,355.918ZM161.04,390.858C147.001,390.861 143.248,390.873 142.984,390.915C142.801,390.943 142.501,391.009 142.319,391.061C142.137,391.112 141.822,391.226 141.62,391.314C141.419,391.401 141.065,391.597 140.834,391.748C140.603,391.899 140.239,392.192 140.025,392.4C139.811,392.606 139.52,392.939 139.377,393.139C139.235,393.338 139.035,393.667 138.933,393.869C138.831,394.071 138.694,394.399 138.628,394.598C138.561,394.798 138.472,395.13 138.431,395.337L138.355,395.719L138.355,431.457L138.434,431.832C138.477,432.039 138.577,432.394 138.656,432.622C138.735,432.85 138.853,433.142 138.918,433.271C138.983,433.4 139.154,433.683 139.298,433.899C139.446,434.121 139.734,434.467 139.958,434.691C140.183,434.915 140.528,435.203 140.75,435.351C140.966,435.495 141.248,435.665 141.375,435.73C141.503,435.794 141.773,435.905 141.975,435.977C142.176,436.047 142.458,436.132 142.6,436.165C142.742,436.198 143.046,436.246 143.276,436.272C143.58,436.306 148.485,436.315 161.353,436.305L179.013,436.293L179.419,436.199C179.642,436.147 179.961,436.056 180.128,435.996C180.294,435.936 180.59,435.807 180.785,435.71C180.98,435.612 181.303,435.415 181.502,435.273C181.702,435.13 182.034,434.839 182.241,434.625C182.448,434.411 182.731,434.064 182.869,433.852C183.008,433.64 183.185,433.334 183.262,433.171C183.339,433.008 183.462,432.689 183.534,432.461C183.607,432.234 183.693,431.868 183.726,431.648C183.779,431.304 183.787,428.771 183.787,413.568C183.787,398.241 183.779,395.837 183.726,395.511C183.692,395.304 183.618,394.972 183.56,394.774C183.503,394.576 183.382,394.254 183.292,394.059C183.202,393.865 183.04,393.568 182.931,393.4C182.823,393.231 182.612,392.948 182.463,392.769C182.314,392.59 182.068,392.339 181.916,392.209C181.764,392.08 181.485,391.873 181.295,391.749C181.106,391.625 180.794,391.452 180.603,391.364C180.412,391.275 180.098,391.155 179.905,391.097C179.712,391.038 179.377,390.962 179.159,390.927C178.808,390.87 176.743,390.864 161.041,390.867L161.04,390.858Z" style="fill:rgb(152,93,59);fill-rule:nonzero;"/>
            </g>
        </g>
    </g>
</svg>
