<?xml version="1.0" encoding="UTF-8" standalone="no"?>
<!DOCTYPE svg PUBLIC "-//W3C//DTD SVG 1.1//EN" "http://www.w3.org/Graphics/SVG/1.1/DTD/svg11.dtd">
<svg width="100%" height="100%" viewBox="0 0 776 97" version="1.1" xmlns="http://www.w3.org/2000/svg" xmlns:xlink="http://www.w3.org/1999/xlink" xml:space="preserve" xmlns:serif="http://www.serif.com/" style="fill-rule:evenodd;clip-rule:evenodd;stroke-linejoin:round;stroke-miterlimit:2;">
    <g transform="matrix(1,0,0,1,-124.491,-335.531)">
        <g id="logo-group" transform="matrix(1,0,0,1,-13.855,-3.8374)">
            <g id="path197338" transform="matrix(1,0,0,1,0,10)">
                <path d="M260.9,403.12L260.9,420.323L262.916,420.323L262.916,414.463L273.534,403.12L270.846,403.12L262.916,411.668L262.916,403.12L260.9,403.12ZM265.12,412.152L271.786,420.323L274.34,420.323L267.647,412.152L265.12,412.152Z" style="fill:rgb(152,93,59);fill-rule:nonzero;"/>
            </g>
            <g id="path197340" transform="matrix(1,0,0,1,0,10)">
                <path d="M280,420.46C283.118,420.46 285.322,418.74 286.075,415.756L284.059,415.756C283.414,417.503 282.366,418.39 280.968,418.39L279.274,418.39C277.043,418.39 275.887,417.234 275.78,413.847L286.29,413.847L286.29,413.31C286.29,408.66 283.871,406.214 280,406.214C276.129,406.214 273.71,408.66 273.71,413.31C273.71,417.772 275.968,420.46 280,420.46ZM275.834,411.966C276.102,409.197 277.231,408.23 279.274,408.23L280.726,408.23C282.769,408.23 283.898,409.197 284.166,411.966L275.834,411.966Z" style="fill:rgb(152,93,59);fill-rule:nonzero;"/>
            </g>
            <g id="path197342" transform="matrix(1,0,0,1,0,10)">
                <path d="M294.59,420.46C297.708,420.46 299.912,418.74 300.665,415.756L298.649,415.756C298.004,417.503 296.955,418.39 295.558,418.39L293.864,418.39C291.633,418.39 290.477,417.234 290.37,413.847L300.88,413.847L300.88,413.31C300.88,408.66 298.461,406.214 294.59,406.214C290.719,406.214 288.3,408.66 288.3,413.31C288.3,417.772 290.558,420.46 294.59,420.46ZM290.424,411.966C290.692,409.197 291.821,408.23 293.864,408.23L295.316,408.23C297.359,408.23 298.488,409.197 298.756,411.966L290.424,411.966Z" style="fill:rgb(152,93,59);fill-rule:nonzero;"/>
            </g>
            <g id="path197344" transform="matrix(1,0,0,1,0,10)">
                <path d="M309.11,420.49C313.035,420.49 315.696,417.829 315.696,413.286C315.696,408.851 313.035,406.217 309.11,406.217C307.336,406.217 305.938,406.862 304.917,407.937L304.917,406.351L302.901,406.351L302.901,423.554L304.917,423.554L304.917,418.743C305.938,419.845 307.336,420.49 309.11,420.49L309.11,420.49ZM304.917,414.388L304.917,412.184C304.917,409.765 306.099,408.233 308.277,408.233L310.024,408.233C312.201,408.233 313.68,410.114 313.68,413.286C313.68,416.458 312.201,418.339 310.024,418.339L308.277,418.339C306.099,418.339 304.917,416.807 304.917,414.388L304.917,414.388Z" style="fill:rgb(152,93,59);fill-rule:nonzero;"/>
            </g>
            <g id="path197346" transform="matrix(1,0,0,1,0,10)">
                <path d="M328.24,420.46L329.261,420.46C331.708,420.46 334.557,420.272 334.557,416.186C334.557,413.444 331.573,412.719 328.912,411.966C326.789,411.267 325.095,411.133 325.095,409.627C325.095,408.391 326.116,408.229 328.079,408.229L328.993,408.229C331.358,408.229 332.326,408.471 332.326,410.595L334.342,410.595C334.342,407.127 331.573,406.214 328.724,406.214C325.552,406.214 323.106,406.751 323.079,409.762C323.079,412.745 325.955,413.176 328.536,413.982C330.659,414.6 332.541,415.111 332.541,416.509C332.541,418.39 331.6,418.444 329.261,418.444L328.24,418.444C326.009,418.444 325.068,417.718 325.068,415.756L323.052,415.756C323.052,419.17 325.095,420.46 328.24,420.46Z" style="fill:rgb(152,93,59);fill-rule:nonzero;"/>
            </g>
            <g id="path197348" transform="matrix(1,0,0,1,0,10)">
                <path d="M343.19,420.49C344.964,420.49 346.362,419.845 347.383,418.743L347.383,420.329L349.399,420.329L349.399,406.351L347.383,406.351L347.383,407.937C346.362,406.861 344.964,406.216 343.19,406.216C339.265,406.216 336.604,408.85 336.604,413.286C336.604,417.828 339.265,420.489 343.19,420.489L343.19,420.49ZM338.62,413.286C338.62,410.114 340.099,408.233 342.276,408.233L344.023,408.233C346.201,408.233 347.383,409.765 347.383,412.184L347.383,414.388C347.383,416.808 346.201,418.34 344.023,418.34L342.276,418.34C340.099,418.34 338.62,416.458 338.62,413.286L338.62,413.286Z" style="fill:rgb(152,93,59);fill-rule:nonzero;"/>
            </g>
            <g id="path197350" transform="matrix(1,0,0,1,0,10)">
                <path d="M353.42,407.24L353.42,406.353L351.404,406.353L351.404,420.331L353.42,420.331L353.42,411.326C353.42,409.418 354.361,408.235 356.054,408.235L357.291,408.235C358.984,408.235 359.602,409.418 359.602,411.918L359.602,420.331L361.618,420.331L361.618,411.326C361.618,409.418 362.559,408.235 364.253,408.235L365.489,408.235C367.183,408.235 367.801,409.418 367.801,411.918L367.801,420.331L369.817,420.331L369.817,412.536C369.817,408.396 369.414,406.219 365.167,406.219C363.07,406.219 361.78,406.837 361.054,408.208C360.436,406.945 359.172,406.219 356.699,406.219C355.167,406.219 354.119,406.542 353.42,407.24Z" style="fill:rgb(152,93,59);fill-rule:nonzero;"/>
            </g>
            <g id="path197352" transform="matrix(1,0,0,1,0,10)">
                <path d="M378.12,420.46C381.238,420.46 383.442,418.74 384.195,415.756L382.179,415.756C381.534,417.503 380.486,418.39 379.088,418.39L377.394,418.39C375.163,418.39 374.007,417.234 373.9,413.847L384.41,413.847L384.41,413.31C384.41,408.66 381.991,406.214 378.12,406.214C374.249,406.214 371.83,408.66 371.83,413.31C371.83,417.772 374.088,420.46 378.12,420.46ZM373.954,411.966C374.222,409.197 375.351,408.23 377.394,408.23L378.846,408.23C380.889,408.23 382.018,409.197 382.286,411.966L373.954,411.966Z" style="fill:rgb(152,93,59);fill-rule:nonzero;"/>
            </g>
            <g id="path197354" transform="matrix(1,0,0,1,0,10)">
                <path d="M398.37,420.49C400.144,420.49 401.542,419.845 402.563,418.743L402.563,420.329L404.579,420.329L404.579,406.351L402.563,406.351L402.563,407.937C401.542,406.861 400.144,406.216 398.37,406.216C394.446,406.216 391.784,408.85 391.784,413.286C391.784,417.828 394.446,420.489 398.37,420.489L398.37,420.49ZM393.8,413.286C393.8,410.114 395.279,408.233 397.456,408.233L399.203,408.233C401.381,408.233 402.563,409.765 402.563,412.184L402.563,414.388C402.563,416.808 401.381,418.34 399.203,418.34L397.456,418.34C395.279,418.34 393.8,416.458 393.8,413.286L393.8,413.286Z" style="fill:rgb(152,93,59);fill-rule:nonzero;"/>
            </g>
            <g id="path197356" transform="matrix(1,0,0,1,0,10)">
                <path d="M408.6,407.56L408.6,406.35L406.584,406.35L406.584,420.328L408.6,420.328L408.6,411.324C408.6,409.415 409.541,408.232 411.234,408.232L413.68,408.232C415.374,408.232 416.261,409.415 416.261,411.915L416.261,420.328L418.277,420.328L418.277,412.533C418.277,408.394 416.664,406.216 412.417,406.216C410.67,406.216 409.433,406.646 408.6,407.56Z" style="fill:rgb(152,93,59);fill-rule:nonzero;"/>
            </g>
            <g id="path197358" transform="matrix(1,0,0,1,0,10)">
                <path d="M426.87,420.49C428.644,420.49 430.042,419.845 431.063,418.743L431.063,420.329L433.079,420.329L433.079,403.126L431.063,403.126L431.063,407.937C430.042,406.862 428.644,406.217 426.87,406.217C422.946,406.217 420.284,408.851 420.284,413.286C420.284,417.829 422.946,420.49 426.87,420.49L426.87,420.49ZM422.3,413.286C422.3,410.114 423.779,408.233 425.956,408.233L427.703,408.233C429.881,408.233 431.063,409.765 431.063,412.184L431.063,414.388C431.063,416.808 429.881,418.34 427.703,418.34L425.956,418.34C423.779,418.34 422.3,416.458 422.3,413.286L422.3,413.286Z" style="fill:rgb(152,93,59);fill-rule:nonzero;"/>
            </g>
            <g id="path197360" transform="matrix(1,0,0,1,0,10)">
                <path d="M446.74,420.46C449.858,420.46 452.062,418.74 452.815,415.756L450.799,415.756C450.154,417.503 449.106,418.39 447.708,418.39L445.96,418.39C443.622,418.39 442.466,417.1 442.466,413.31C442.466,409.52 443.622,408.23 445.96,408.23L447.761,408.23C449.159,408.23 450.1,409.063 450.718,410.649L452.734,410.649C451.928,407.665 449.697,406.214 446.74,406.214C442.869,406.214 440.45,408.66 440.45,413.31C440.45,417.772 442.708,420.46 446.74,420.46L446.74,420.46Z" style="fill:rgb(152,93,59);fill-rule:nonzero;"/>
            </g>
            <g id="path197362" transform="matrix(1,0,0,1,0,10)">
                <path d="M456.85,407.56L456.85,406.35L454.834,406.35L454.834,420.328L456.85,420.328L456.85,411.324C456.85,409.415 457.791,408.232 459.484,408.232L460.667,408.232L460.667,406.216C458.92,406.216 457.683,406.646 456.85,407.56L456.85,407.56Z" style="fill:rgb(152,93,59);fill-rule:nonzero;"/>
            </g>
            <g id="path197364" transform="matrix(1,0,0,1,0,10)">
                <path d="M468.04,420.46C472.206,420.46 474.76,417.906 474.76,413.31C474.76,408.902 472.395,406.214 468.04,406.214C463.874,406.214 461.347,408.713 461.347,413.31C461.347,417.826 463.632,420.46 468.04,420.46ZM463.363,413.283C463.363,410.111 464.868,408.23 467.019,408.23L469.088,408.23C471.239,408.23 472.744,410.111 472.744,413.283C472.744,416.455 471.239,418.336 469.088,418.336L467.019,418.336C464.868,418.336 463.363,416.455 463.363,413.283Z" style="fill:rgb(152,93,59);fill-rule:nonzero;"/>
            </g>
            <g id="path197366" transform="matrix(1,0,0,1,0,10)">
                <path d="M481.44,420.46L482.461,420.46C484.908,420.46 487.757,420.272 487.757,416.186C487.757,413.444 484.773,412.719 482.112,411.966C479.989,411.267 478.295,411.133 478.295,409.627C478.295,408.391 479.316,408.229 481.279,408.229L482.193,408.229C484.558,408.229 485.526,408.471 485.526,410.595L487.542,410.595C487.542,407.127 484.773,406.214 481.924,406.214C478.752,406.214 476.306,406.751 476.279,409.762C476.279,412.745 479.155,413.176 481.736,413.982C483.859,414.6 485.741,415.111 485.741,416.509C485.741,418.39 484.8,418.444 482.461,418.444L481.44,418.444C479.209,418.444 478.268,417.718 478.268,415.756L476.252,415.756C476.252,419.17 478.295,420.46 481.44,420.46Z" style="fill:rgb(152,93,59);fill-rule:nonzero;"/>
            </g>
            <g id="path197368" transform="matrix(1,0,0,1,0,10)">
                <path d="M494.98,420.46L496.001,420.46C498.448,420.46 501.297,420.272 501.297,416.186C501.297,413.444 498.313,412.719 495.652,411.966C493.529,411.267 491.835,411.133 491.835,409.627C491.835,408.391 492.856,408.229 494.819,408.229L495.733,408.229C498.098,408.229 499.066,408.471 499.066,410.595L501.082,410.595C501.082,407.127 498.313,406.214 495.464,406.214C492.292,406.214 489.846,406.751 489.819,409.762C489.819,412.745 492.695,413.176 495.276,413.982C497.399,414.6 499.281,415.111 499.281,416.509C499.281,418.39 498.34,418.444 496.001,418.444L494.98,418.444C492.749,418.444 491.808,417.718 491.808,415.756L489.792,415.756C489.792,419.17 491.835,420.46 494.98,420.46Z" style="fill:rgb(152,93,59);fill-rule:nonzero;"/>
            </g>
            <g id="path197370" transform="matrix(1,0,0,1,0,10)">
                <path d="M515.28,420.49C517.054,420.49 518.452,419.845 519.473,418.743L519.473,420.329L521.489,420.329L521.489,403.126L519.473,403.126L519.473,407.937C518.452,406.862 517.054,406.217 515.28,406.217C511.355,406.217 508.694,408.851 508.694,413.286C508.694,417.829 511.355,420.49 515.28,420.49L515.28,420.49ZM510.71,413.286C510.71,410.114 512.189,408.233 514.366,408.233L516.113,408.233C518.291,408.233 519.473,409.765 519.473,412.184L519.473,414.388C519.473,416.808 518.291,418.34 516.113,418.34L514.366,418.34C512.189,418.34 510.71,416.458 510.71,413.286L510.71,413.286Z" style="fill:rgb(152,93,59);fill-rule:nonzero;"/>
            </g>
            <g id="path197372" transform="matrix(1,0,0,1,0,10)">
                <path d="M530.2,420.46C534.366,420.46 536.92,417.906 536.92,413.31C536.92,408.902 534.555,406.214 530.2,406.214C526.034,406.214 523.507,408.713 523.507,413.31C523.507,417.826 525.792,420.46 530.2,420.46ZM525.523,413.283C525.523,410.111 527.028,408.23 529.179,408.23L531.248,408.23C533.399,408.23 534.904,410.111 534.904,413.283C534.904,416.455 533.399,418.336 531.248,418.336L529.179,418.336C527.028,418.336 525.523,416.455 525.523,413.283Z" style="fill:rgb(152,93,59);fill-rule:nonzero;"/>
            </g>
            <g id="path197374" transform="matrix(1,0,0,1,0,10)">
                <path d="M540.95,407.24L540.95,406.353L538.934,406.353L538.934,420.331L540.95,420.331L540.95,411.326C540.95,409.418 541.891,408.235 543.584,408.235L544.821,408.235C546.514,408.235 547.132,409.418 547.132,411.918L547.132,420.331L549.148,420.331L549.148,411.326C549.148,409.418 550.089,408.235 551.783,408.235L553.019,408.235C554.712,408.235 555.331,409.418 555.331,411.918L555.331,420.331L557.347,420.331L557.347,412.536C557.347,408.396 556.944,406.219 552.697,406.219C550.6,406.219 549.31,406.837 548.584,408.208C547.966,406.945 546.702,406.219 544.229,406.219C542.697,406.219 541.649,406.542 540.95,407.24Z" style="fill:rgb(152,93,59);fill-rule:nonzero;"/>
            </g>
            <g id="path197376" transform="matrix(1,0,0,1,0,10)">
                <path d="M565.95,420.49C567.724,420.49 569.122,419.845 570.143,418.743L570.143,420.329L572.159,420.329L572.159,406.351L570.143,406.351L570.143,407.937C569.122,406.861 567.724,406.216 565.95,406.216C562.026,406.216 559.364,408.85 559.364,413.286C559.364,417.828 562.026,420.489 565.95,420.489L565.95,420.49ZM561.38,413.286C561.38,410.114 562.859,408.233 565.036,408.233L566.783,408.233C568.961,408.233 570.143,409.765 570.143,412.184L570.143,414.388C570.143,416.808 568.961,418.34 566.783,418.34L565.036,418.34C562.859,418.34 561.38,416.458 561.38,413.286L561.38,413.286Z" style="fill:rgb(152,93,59);fill-rule:nonzero;"/>
            </g>
            <g id="path197378" transform="matrix(1,0,0,1,0,10)">
                <path d="M576.18,420.33L576.18,406.352L574.164,406.352L574.164,420.33L576.18,420.33ZM574.164,405.143L576.18,405.143L576.18,403.127L574.164,403.127L574.164,405.143Z" style="fill:rgb(152,93,59);fill-rule:nonzero;"/>
            </g>
            <g id="path197380" transform="matrix(1,0,0,1,0,10)">
                <path d="M580.22,407.56L580.22,406.35L578.204,406.35L578.204,420.328L580.22,420.328L580.22,411.324C580.22,409.415 581.161,408.232 582.854,408.232L585.3,408.232C586.994,408.232 587.881,409.415 587.881,411.915L587.881,420.328L589.897,420.328L589.897,412.533C589.897,408.394 588.284,406.216 584.037,406.216C582.29,406.216 581.053,406.646 580.22,407.56Z" style="fill:rgb(152,93,59);fill-rule:nonzero;"/>
            </g>
            <g id="path197382" transform="matrix(1,0,0,1,0,10)">
                <path d="M599.28,420.33L599.28,406.352L597.264,406.352L597.264,420.33L599.28,420.33ZM597.264,405.143L599.28,405.143L599.28,403.127L597.264,403.127L597.264,405.143Z" style="fill:rgb(152,93,59);fill-rule:nonzero;"/>
            </g>
            <g id="path197384" transform="matrix(1,0,0,1,0,10)">
                <path d="M601.31,406.43L601.31,420.354L603.326,420.354L603.326,409.736L606.471,409.736L606.471,407.72L603.326,407.72L603.326,406.43C603.326,405.381 603.541,405.14 604.589,405.14L606.471,405.14L606.471,403.124L604.589,403.124C602.546,403.124 601.31,404.387 601.31,406.43Z" style="fill:rgb(152,93,59);fill-rule:nonzero;"/>
            </g>
            <g id="path197386" transform="matrix(1,0,0,1,0,10)">
                <path d="M610.52,407.56L610.52,406.35L608.504,406.35L608.504,420.328L610.52,420.328L610.52,411.324C610.52,409.415 611.461,408.232 613.154,408.232L614.337,408.232L614.337,406.216C612.59,406.216 611.353,406.646 610.52,407.56L610.52,407.56Z" style="fill:rgb(152,93,59);fill-rule:nonzero;"/>
            </g>
            <g id="path197388" transform="matrix(1,0,0,1,0,10)">
                <path d="M621.6,420.49C623.374,420.49 624.772,419.845 625.793,418.743L625.793,420.329L627.809,420.329L627.809,406.351L625.793,406.351L625.793,407.937C624.772,406.861 623.374,406.216 621.6,406.216C617.676,406.216 615.014,408.85 615.014,413.286C615.014,417.828 617.676,420.489 621.6,420.489L621.6,420.49ZM617.03,413.286C617.03,410.114 618.509,408.233 620.686,408.233L622.433,408.233C624.611,408.233 625.793,409.765 625.793,412.184L625.793,414.388C625.793,416.808 624.611,418.34 622.433,418.34L620.686,418.34C618.509,418.34 617.03,416.458 617.03,413.286L617.03,413.286Z" style="fill:rgb(152,93,59);fill-rule:nonzero;"/>
            </g>
            <g id="path197390" transform="matrix(1,0,0,1,0,10)">
                <path d="M631.83,407.24L631.83,406.353L629.814,406.353L629.814,420.331L631.83,420.331L631.83,411.326C631.83,409.418 632.771,408.235 634.464,408.235L635.701,408.235C637.394,408.235 638.012,409.418 638.012,411.918L638.012,420.331L640.028,420.331L640.028,411.326C640.028,409.418 640.969,408.235 642.663,408.235L643.899,408.235C645.592,408.235 646.211,409.418 646.211,411.918L646.211,420.331L648.227,420.331L648.227,412.536C648.227,408.396 647.824,406.219 643.577,406.219C641.48,406.219 640.19,406.837 639.464,408.208C638.846,406.945 637.582,406.219 635.109,406.219C633.577,406.219 632.529,406.542 631.83,407.24Z" style="fill:rgb(152,93,59);fill-rule:nonzero;"/>
            </g>
            <g id="path197392" transform="matrix(1,0,0,1,0,10)">
                <path d="M656.53,420.46C659.648,420.46 661.852,418.74 662.605,415.756L660.589,415.756C659.944,417.503 658.896,418.39 657.498,418.39L655.804,418.39C653.573,418.39 652.417,417.234 652.31,413.847L662.82,413.847L662.82,413.31C662.82,408.66 660.401,406.214 656.53,406.214C652.659,406.214 650.24,408.66 650.24,413.31C650.24,417.772 652.498,420.46 656.53,420.46ZM652.364,411.966C652.632,409.197 653.761,408.23 655.804,408.23L657.256,408.23C659.299,408.23 660.428,409.197 660.696,411.966L652.364,411.966Z" style="fill:rgb(152,93,59);fill-rule:nonzero;"/>
            </g>
            <g id="path197394" transform="matrix(1,0,0,1,0,10)">
                <path d="M669.49,420.46L670.511,420.46C672.958,420.46 675.807,420.272 675.807,416.186C675.807,413.444 672.823,412.719 670.162,411.966C668.038,411.267 666.345,411.133 666.345,409.627C666.345,408.391 667.366,408.229 669.329,408.229L670.243,408.229C672.608,408.229 673.576,408.471 673.576,410.595L675.592,410.595C675.592,407.127 672.823,406.214 669.974,406.214C666.802,406.214 664.356,406.751 664.329,409.762C664.329,412.745 667.205,413.176 669.786,413.982C671.909,414.6 673.791,415.111 673.791,416.509C673.791,418.39 672.85,418.444 670.511,418.444L669.49,418.444C667.259,418.444 666.318,417.718 666.318,415.756L664.302,415.756C664.302,419.17 666.345,420.46 669.49,420.46Z" style="fill:rgb(152,93,59);fill-rule:nonzero;"/>
            </g>
            <g id="path197396" transform="matrix(1,0,0,1,0,10)">
                <path d="M688.39,420.46L689.411,420.46C691.858,420.46 694.707,420.272 694.707,416.186C694.707,413.444 691.723,412.719 689.062,411.966C686.938,411.267 685.245,411.133 685.245,409.627C685.245,408.391 686.266,408.229 688.229,408.229L689.143,408.229C691.508,408.229 692.476,408.471 692.476,410.595L694.492,410.595C694.492,407.127 691.723,406.214 688.874,406.214C685.702,406.214 683.256,406.751 683.229,409.762C683.229,412.745 686.105,413.176 688.686,413.982C690.809,414.6 692.691,415.111 692.691,416.509C692.691,418.39 691.75,418.444 689.411,418.444L688.39,418.444C686.159,418.444 685.218,417.718 685.218,415.756L683.202,415.756C683.202,419.17 685.245,420.46 688.39,420.46Z" style="fill:rgb(152,93,59);fill-rule:nonzero;"/>
            </g>
            <g id="path197398" transform="matrix(1,0,0,1,0,10)">
                <path d="M698.77,420.33L698.77,406.352L696.754,406.352L696.754,420.33L698.77,420.33ZM696.754,405.143L698.77,405.143L698.77,403.127L696.754,403.127L696.754,405.143Z" style="fill:rgb(152,93,59);fill-rule:nonzero;"/>
            </g>
            <g id="path197400" transform="matrix(1,0,0,1,0,10)">
                <path d="M710.87,408.37L710.87,406.354L700.79,406.354L700.79,408.37L708.451,408.37L700.844,418.316L700.79,418.316L700.79,420.332L711.139,420.332L711.139,418.316L703.263,418.316L710.87,408.37Z" style="fill:rgb(152,93,59);fill-rule:nonzero;"/>
            </g>
            <g id="path197402" transform="matrix(1,0,0,1,0,10)">
                <path d="M718.95,420.46C722.068,420.46 724.272,418.74 725.025,415.756L723.009,415.756C722.364,417.503 721.316,418.39 719.918,418.39L718.224,418.39C715.993,418.39 714.837,417.234 714.73,413.847L725.24,413.847L725.24,413.31C725.24,408.66 722.821,406.214 718.95,406.214C715.079,406.214 712.66,408.66 712.66,413.31C712.66,417.772 714.918,420.46 718.95,420.46ZM714.784,411.966C715.052,409.197 716.181,408.23 718.224,408.23L719.676,408.23C721.719,408.23 722.848,409.197 723.116,411.966L714.784,411.966Z" style="fill:rgb(152,93,59);fill-rule:nonzero;"/>
            </g>
            <g id="path197404" transform="matrix(1,0,0,1,0,10)">
                <path d="M733.84,420.49C735.614,420.49 737.012,419.845 738.033,418.743L738.033,420.329L740.049,420.329L740.049,403.126L738.033,403.126L738.033,407.937C737.012,406.862 735.614,406.217 733.84,406.217C729.916,406.217 727.254,408.851 727.254,413.286C727.254,417.829 729.916,420.49 733.84,420.49L733.84,420.49ZM729.27,413.286C729.27,410.114 730.749,408.233 732.926,408.233L734.673,408.233C736.851,408.233 738.033,409.765 738.033,412.184L738.033,414.388C738.033,416.808 736.851,418.34 734.673,418.34L732.926,418.34C730.749,418.34 729.27,416.458 729.27,413.286L729.27,413.286Z" style="fill:rgb(152,93,59);fill-rule:nonzero;"/>
            </g>
            <g id="path197406" transform="matrix(1,0,0,1,0,10)">
                <path d="M750.69,420.33L752.572,420.33L752.572,418.314L750.69,418.314C749.642,418.314 749.427,418.099 749.427,417.051L749.427,408.368L752.572,408.368L752.572,406.352L749.427,406.352L749.427,403.127L747.411,403.127L747.411,417.051C747.411,419.094 748.647,420.33 750.69,420.33L750.69,420.33Z" style="fill:rgb(152,93,59);fill-rule:nonzero;"/>
            </g>
            <g id="path197408" transform="matrix(1,0,0,1,0,10)">
                <path d="M760.78,420.46C764.946,420.46 767.5,417.906 767.5,413.31C767.5,408.902 765.135,406.214 760.78,406.214C756.614,406.214 754.087,408.713 754.087,413.31C754.087,417.826 756.372,420.46 760.78,420.46ZM756.103,413.283C756.103,410.111 757.608,408.23 759.759,408.23L761.828,408.23C763.979,408.23 765.484,410.111 765.484,413.283C765.484,416.455 763.979,418.336 761.828,418.336L759.759,418.336C757.608,418.336 756.103,416.455 756.103,413.283Z" style="fill:rgb(152,93,59);fill-rule:nonzero;"/>
            </g>
            <g id="path197410" transform="matrix(1,0,0,1,0,10)">
                <path d="M778.15,420.33L780.032,420.33L780.032,418.314L778.15,418.314C777.102,418.314 776.887,418.099 776.887,417.051L776.887,408.368L780.032,408.368L780.032,406.352L776.887,406.352L776.887,403.127L774.871,403.127L774.871,417.051C774.871,419.094 776.107,420.33 778.15,420.33L778.15,420.33Z" style="fill:rgb(152,93,59);fill-rule:nonzero;"/>
            </g>
            <g id="path197412" transform="matrix(1,0,0,1,0,10)">
                <path d="M784.08,407.56L784.08,403.125L782.064,403.125L782.064,420.328L784.08,420.328L784.08,411.323C784.08,409.414 785.021,408.232 786.714,408.232L789.16,408.232C790.854,408.232 791.741,409.414 791.741,411.914L791.741,420.328L793.757,420.328L793.757,412.533C793.757,408.393 792.144,406.216 787.897,406.216C786.15,406.216 784.913,406.646 784.08,407.56L784.08,407.56Z" style="fill:rgb(152,93,59);fill-rule:nonzero;"/>
            </g>
            <g id="path197414" transform="matrix(1,0,0,1,0,10)">
                <path d="M802.06,420.46C805.178,420.46 807.382,418.74 808.135,415.756L806.119,415.756C805.474,417.503 804.425,418.39 803.028,418.39L801.334,418.39C799.103,418.39 797.947,417.234 797.84,413.847L808.35,413.847L808.35,413.31C808.35,408.66 805.931,406.214 802.06,406.214C798.189,406.214 795.77,408.66 795.77,413.31C795.77,417.772 798.028,420.46 802.06,420.46ZM797.894,411.966C798.162,409.197 799.291,408.23 801.334,408.23L802.786,408.23C804.829,408.23 805.958,409.197 806.226,411.966L797.894,411.966Z" style="fill:rgb(152,93,59);fill-rule:nonzero;"/>
            </g>
            <g id="path197416" transform="matrix(1,0,0,1,0,10)">
                <path d="M812.38,420.33L812.38,406.352L810.364,406.352L810.364,420.33L812.38,420.33ZM810.364,405.143L812.38,405.143L812.38,403.127L810.364,403.127L810.364,405.143Z" style="fill:rgb(152,93,59);fill-rule:nonzero;"/>
            </g>
            <g id="path197418" transform="matrix(1,0,0,1,0,10)">
                <path d="M816.42,407.56L816.42,406.35L814.404,406.35L814.404,420.328L816.42,420.328L816.42,411.324C816.42,409.415 817.361,408.232 819.054,408.232L820.237,408.232L820.237,406.216C818.49,406.216 817.253,406.646 816.42,407.56L816.42,407.56Z" style="fill:rgb(152,93,59);fill-rule:nonzero;"/>
            </g>
            <g id="path197420" transform="matrix(1,0,0,1,0,10)">
                <path d="M833.92,420.46C837.038,420.46 839.242,418.74 839.995,415.756L837.979,415.756C837.334,417.503 836.285,418.39 834.888,418.39L833.141,418.39C830.802,418.39 829.646,417.1 829.646,413.31C829.646,409.52 830.802,408.23 833.141,408.23L834.942,408.23C836.339,408.23 837.28,409.063 837.898,410.649L839.914,410.649C839.108,407.665 836.877,406.214 833.92,406.214C830.049,406.214 827.63,408.66 827.63,413.31C827.63,417.772 829.888,420.46 833.92,420.46L833.92,420.46Z" style="fill:rgb(152,93,59);fill-rule:nonzero;"/>
            </g>
            <g id="path197422" transform="matrix(1,0,0,1,0,10)">
                <path d="M848.71,420.46C852.876,420.46 855.43,417.906 855.43,413.31C855.43,408.902 853.065,406.214 848.71,406.214C844.544,406.214 842.017,408.713 842.017,413.31C842.017,417.826 844.302,420.46 848.71,420.46ZM844.033,413.283C844.033,410.111 845.538,408.23 847.689,408.23L849.758,408.23C851.909,408.23 853.414,410.111 853.414,413.283C853.414,416.455 851.909,418.336 849.758,418.336L847.689,418.336C845.538,418.336 844.033,416.455 844.033,413.283Z" style="fill:rgb(152,93,59);fill-rule:nonzero;"/>
            </g>
            <g id="path197424" transform="matrix(1,0,0,1,0,10)">
                <path d="M859.47,407.56L859.47,406.35L857.454,406.35L857.454,420.328L859.47,420.328L859.47,411.324C859.47,409.415 860.411,408.232 862.104,408.232L864.55,408.232C866.244,408.232 867.131,409.415 867.131,411.915L867.131,420.328L869.147,420.328L869.147,412.533C869.147,408.394 867.534,406.216 863.287,406.216C861.54,406.216 860.303,406.646 859.47,407.56Z" style="fill:rgb(152,93,59);fill-rule:nonzero;"/>
            </g>
            <g id="path197426" transform="matrix(1,0,0,1,0,10)">
                <path d="M874.7,420.33L876.582,420.33L876.582,418.314L874.7,418.314C873.652,418.314 873.437,418.099 873.437,417.051L873.437,408.368L876.582,408.368L876.582,406.352L873.437,406.352L873.437,403.127L871.421,403.127L871.421,417.051C871.421,419.094 872.657,420.33 874.7,420.33L874.7,420.33Z" style="fill:rgb(152,93,59);fill-rule:nonzero;"/>
            </g>
            <g id="path197428" transform="matrix(1,0,0,1,0,10)">
                <path d="M884.38,420.46C887.498,420.46 889.702,418.74 890.455,415.756L888.439,415.756C887.794,417.503 886.746,418.39 885.348,418.39L883.654,418.39C881.423,418.39 880.267,417.234 880.16,413.847L890.67,413.847L890.67,413.31C890.67,408.66 888.251,406.214 884.38,406.214C880.509,406.214 878.09,408.66 878.09,413.31C878.09,417.772 880.348,420.46 884.38,420.46ZM880.214,411.966C880.482,409.197 881.611,408.23 883.654,408.23L885.106,408.23C887.149,408.23 888.278,409.197 888.546,411.966L880.214,411.966Z" style="fill:rgb(152,93,59);fill-rule:nonzero;"/>
            </g>
            <g id="path197430" transform="matrix(1,0,0,1,0,10)">
                <path d="M894.7,407.56L894.7,406.35L892.684,406.35L892.684,420.328L894.7,420.328L894.7,411.324C894.7,409.415 895.641,408.232 897.334,408.232L899.78,408.232C901.474,408.232 902.361,409.415 902.361,411.915L902.361,420.328L904.377,420.328L904.377,412.533C904.377,408.394 902.764,406.216 898.517,406.216C896.77,406.216 895.533,406.646 894.7,407.56Z" style="fill:rgb(152,93,59);fill-rule:nonzero;"/>
            </g>
            <g id="path197432" transform="matrix(1,0,0,1,0,10)">
                <path d="M909.93,420.33L911.812,420.33L911.812,418.314L909.93,418.314C908.882,418.314 908.667,418.099 908.667,417.051L908.667,408.368L911.812,408.368L911.812,406.352L908.667,406.352L908.667,403.127L906.651,403.127L906.651,417.051C906.651,419.094 907.887,420.33 909.93,420.33L909.93,420.33Z" style="fill:rgb(152,93,59);fill-rule:nonzero;"/>
            </g>
            <g id="path197435" transform="matrix(1,0,0,1,0,10)">
                <rect x="260.895" y="344.989" width="6.856" height="37.811" style="fill:rgb(136,158,55);fill-rule:nonzero;"/>
            </g>
            <g id="path197437" transform="matrix(1,0,0,1,0,10)">
                <path d="M313.84,367.35L292.166,367.35L292.166,360.442L313.84,360.442L313.84,367.35ZM316.899,351.846L289.424,351.846L289.424,382.801L282.568,382.801L282.568,348.445C282.568,347.97 282.656,347.522 282.832,347.1C283.008,346.678 283.245,346.309 283.544,345.993C283.86,345.676 284.229,345.43 284.651,345.255C285.073,345.079 285.53,344.991 286.022,344.991L316.898,344.991L316.899,351.846Z" style="fill:rgb(136,158,55);fill-rule:nonzero;"/>
            </g>
            <g id="path197439" transform="matrix(1,0,0,1,0,10)">
                <path d="M366.97,357.7C366.97,359.264 366.777,360.662 366.39,361.892C366.003,363.123 365.476,364.213 364.808,365.162C364.158,366.094 363.402,366.893 362.54,367.561C361.679,368.229 360.774,368.783 359.825,369.222C358.893,369.644 357.944,369.952 356.977,370.145C356.028,370.339 355.131,370.435 354.287,370.435L368.604,382.801L358.004,382.801L343.713,370.435L338.783,370.435L338.783,363.58L354.287,363.58C355.148,363.509 355.93,363.334 356.633,363.052C357.354,362.754 357.969,362.358 358.479,361.866C359.006,361.374 359.411,360.785 359.692,360.099C359.973,359.396 360.114,358.596 360.114,357.7L360.114,353.376C360.114,352.989 360.061,352.699 359.956,352.506C359.868,352.295 359.745,352.145 359.587,352.057C359.446,351.952 359.288,351.89 359.112,351.873C358.954,351.855 358.804,351.846 358.664,351.846L336.041,351.846L336.041,382.801L329.185,382.801L329.185,348.445C329.185,347.971 329.273,347.523 329.449,347.101C329.625,346.679 329.862,346.31 330.161,345.993C330.477,345.677 330.846,345.431 331.268,345.255C331.69,345.079 332.147,344.991 332.639,344.991L358.663,344.991C360.193,344.991 361.485,345.273 362.539,345.835C363.594,346.38 364.446,347.074 365.097,347.918C365.765,348.744 366.239,349.641 366.521,350.608C366.82,351.574 366.969,352.48 366.969,353.323L366.97,357.7Z" style="fill:rgb(136,158,55);fill-rule:nonzero;"/>
            </g>
            <g id="path197441" transform="matrix(1,0,0,1,0,10)">
                <path d="M417.76,382.8L410.905,382.8L410.905,373.519L386.804,373.519L386.804,382.8L379.949,382.8L379.949,363.895C379.949,361.135 380.424,358.595 381.373,356.275C382.322,353.955 383.64,351.959 385.328,350.289C387.015,348.62 389.011,347.319 391.313,346.387C393.616,345.455 396.13,344.99 398.854,344.99L414.305,344.99C414.78,344.99 415.228,345.077 415.65,345.253C416.072,345.429 416.441,345.675 416.757,345.992C417.074,346.308 417.32,346.677 417.496,347.099C417.671,347.521 417.759,347.969 417.759,348.444L417.76,382.8ZM386.8,366.66L410.9,366.66L410.9,351.842L398.85,351.842C398.639,351.842 398.191,351.877 397.505,351.947C396.837,352 396.055,352.15 395.159,352.396C394.28,352.642 393.348,353.02 392.364,353.53C391.379,354.039 390.474,354.742 389.648,355.639C388.822,356.535 388.136,357.66 387.591,359.014C387.064,360.35 386.8,361.976 386.8,363.892L386.8,366.66Z" style="fill:rgb(136,158,55);fill-rule:nonzero;"/>
            </g>
            <g id="path197443" transform="matrix(1,0,0,1,0,10)">
                <path d="M476.45,382.8L469.542,382.8L469.542,360.282L457.387,381.666C457.088,382.211 456.666,382.624 456.121,382.905C455.594,383.187 455.023,383.327 454.407,383.327C453.81,383.327 453.247,383.187 452.72,382.905C452.21,382.624 451.806,382.211 451.507,381.666L439.299,360.282L439.299,382.8L432.443,382.8L432.443,347.916C432.443,347.125 432.672,346.422 433.129,345.807C433.604,345.191 434.219,344.778 434.975,344.567C435.344,344.479 435.713,344.453 436.082,344.488C436.451,344.506 436.803,344.585 437.137,344.726C437.488,344.849 437.805,345.033 438.086,345.279C438.367,345.508 438.605,345.789 438.798,346.123L454.407,373.255L470.016,346.123C470.42,345.455 470.974,344.98 471.677,344.699C472.398,344.418 473.145,344.374 473.918,344.567C474.656,344.778 475.263,345.191 475.737,345.807C476.212,346.422 476.449,347.125 476.449,347.916L476.45,382.8Z" style="fill:rgb(136,158,55);fill-rule:nonzero;"/>
            </g>
            <g id="path197445" transform="matrix(1,0,0,1,0,10)">
                <path d="M522.27,367.35L500.623,367.35L500.623,360.442L522.27,360.442L522.27,367.35ZM525.355,382.801L500.623,382.801C499.674,382.801 498.637,382.634 497.512,382.3C496.387,381.966 495.341,381.421 494.374,380.665C493.425,379.892 492.625,378.899 491.975,377.686C491.342,376.455 491.025,374.952 491.025,373.177L491.025,348.445C491.025,347.97 491.113,347.522 491.289,347.1C491.465,346.678 491.702,346.309 492.001,345.993C492.317,345.676 492.687,345.43 493.108,345.255C493.53,345.079 493.987,344.991 494.479,344.991L525.355,344.991L525.355,351.846L497.88,351.846L497.88,373.177C497.88,374.074 498.118,374.759 498.592,375.234C499.067,375.709 499.761,375.946 500.675,375.946L525.355,375.946L525.355,382.801Z" style="fill:rgb(136,158,55);fill-rule:nonzero;"/>
            </g>
            <g id="path197447" transform="matrix(1,0,0,1,0,10)">
                <rect x="555.448" y="360.81" width="24.732" height="6.17" style="fill:rgb(136,158,55);fill-rule:nonzero;"/>
            </g>
            <g id="path197449" transform="matrix(1,0,0,1,0,10)">
                <path d="M649.42,357.7C649.42,359.264 649.227,360.662 648.84,361.892C648.453,363.123 647.926,364.213 647.258,365.162C646.608,366.094 645.852,366.893 644.99,367.561C644.129,368.229 643.224,368.783 642.275,369.222C641.343,369.644 640.394,369.952 639.427,370.145C638.478,370.339 637.581,370.435 636.737,370.435L651.054,382.801L640.454,382.801L626.163,370.435L621.233,370.435L621.233,363.58L636.737,363.58C637.598,363.509 638.38,363.334 639.083,363.052C639.804,362.754 640.419,362.358 640.929,361.866C641.456,361.374 641.861,360.785 642.142,360.099C642.423,359.396 642.564,358.596 642.564,357.7L642.564,353.376C642.564,352.989 642.511,352.699 642.406,352.506C642.318,352.295 642.195,352.145 642.037,352.057C641.896,351.952 641.738,351.89 641.562,351.873C641.404,351.855 641.254,351.846 641.114,351.846L618.491,351.846L618.491,382.801L611.635,382.801L611.635,348.445C611.635,347.971 611.723,347.523 611.899,347.101C612.075,346.679 612.312,346.31 612.611,345.993C612.927,345.677 613.296,345.431 613.718,345.255C614.14,345.079 614.597,344.991 615.089,344.991L641.113,344.991C642.643,344.991 643.935,345.273 644.989,345.835C646.044,346.38 646.896,347.074 647.547,347.918C648.215,348.744 648.689,349.641 648.971,350.608C649.27,351.574 649.419,352.48 649.419,353.323L649.42,357.7Z" style="fill:rgb(136,158,55);fill-rule:nonzero;"/>
            </g>
            <g id="path197451" transform="matrix(1,0,0,1,0,10)">
                <path d="M694.19,367.35L672.54,367.35L672.54,360.442L694.187,360.442L694.19,367.35ZM697.275,382.801L672.543,382.801C671.594,382.801 670.557,382.634 669.432,382.3C668.307,381.966 667.261,381.421 666.294,380.665C665.345,379.892 664.545,378.899 663.895,377.686C663.262,376.455 662.945,374.952 662.945,373.177L662.945,348.445C662.945,347.97 663.033,347.522 663.209,347.1C663.385,346.678 663.622,346.309 663.921,345.993C664.237,345.676 664.607,345.43 665.028,345.255C665.45,345.079 665.907,344.991 666.399,344.991L697.275,344.991L697.275,351.846L669.8,351.846L669.8,373.177C669.8,374.074 670.038,374.759 670.512,375.234C670.987,375.709 671.681,375.946 672.595,375.946L697.275,375.946L697.275,382.801Z" style="fill:rgb(136,158,55);fill-rule:nonzero;"/>
            </g>
            <g id="path197453" transform="matrix(1,0,0,1,0,10)">
                <path d="M746.9,371.67C746.9,373.024 746.724,374.245 746.373,375.335C746.039,376.407 745.59,377.356 745.028,378.183C744.465,379.009 743.806,379.712 743.05,380.292C742.295,380.872 741.512,381.347 740.704,381.716C739.895,382.085 739.069,382.357 738.225,382.533C737.399,382.709 736.617,382.797 735.879,382.797L709.429,382.797L709.429,375.941L735.875,375.941C737.193,375.941 738.212,375.555 738.933,374.781C739.671,374.008 740.041,372.971 740.041,371.67C740.041,371.037 739.944,370.457 739.751,369.93C739.557,369.402 739.276,368.945 738.907,368.559C738.555,368.172 738.116,367.873 737.588,367.662C737.079,367.451 736.507,367.346 735.874,367.346L720.106,367.346C718.999,367.346 717.804,367.152 716.521,366.766C715.237,366.361 714.042,365.72 712.935,364.841C711.845,363.962 710.931,362.81 710.192,361.387C709.472,359.963 709.111,358.223 709.111,356.166C709.111,354.109 709.472,352.378 710.192,350.972C710.931,349.548 711.845,348.397 712.935,347.518C714.042,346.621 715.237,345.98 716.521,345.593C717.804,345.188 718.999,344.986 720.106,344.986L743.441,344.986L743.441,351.842L720.106,351.842C718.806,351.842 717.786,352.237 717.048,353.028C716.327,353.819 715.967,354.865 715.967,356.166C715.967,357.484 716.327,358.53 717.048,359.304C717.786,360.06 718.806,360.438 720.106,360.438L735.927,360.438C736.666,360.455 737.448,360.561 738.274,360.754C739.1,360.93 739.918,361.211 740.726,361.598C741.552,361.984 742.335,362.477 743.073,363.074C743.811,363.654 744.462,364.358 745.024,365.184C745.604,366.01 746.061,366.959 746.395,368.031C746.729,369.104 746.896,370.316 746.896,371.67L746.9,371.67Z" style="fill:rgb(136,158,55);fill-rule:nonzero;"/>
            </g>
            <g id="path197455" transform="matrix(1,0,0,1,0,10)">
                <rect x="759.444" y="344.989" width="6.856" height="37.811" style="fill:rgb(136,158,55);fill-rule:nonzero;"/>
            </g>
            <g id="path197457" transform="matrix(1,0,0,1,0,10)">
                <path d="M813.47,347.04C813.734,347.655 813.813,348.306 813.707,348.991C813.602,349.659 813.321,350.231 812.864,350.705L790.241,375.938L813.418,375.938L813.418,382.794L782.516,382.794C781.848,382.794 781.224,382.609 780.643,382.24C780.081,381.853 779.659,381.352 779.378,380.737C779.079,380.122 778.982,379.48 779.088,378.812C779.211,378.144 779.492,377.564 779.932,377.072L802.608,351.839L779.378,351.839L779.378,344.983L810.333,344.983C811.001,344.983 811.616,345.177 812.178,345.564C812.758,345.933 813.189,346.425 813.47,347.04L813.47,347.04Z" style="fill:rgb(136,158,55);fill-rule:nonzero;"/>
            </g>
            <g id="path197459" transform="matrix(1,0,0,1,0,10)">
                <path d="M857.45,367.35L835.803,367.35L835.803,360.442L857.45,360.442L857.45,367.35ZM860.535,382.801L835.803,382.801C834.854,382.801 833.817,382.634 832.692,382.3C831.567,381.966 830.521,381.421 829.554,380.665C828.605,379.892 827.805,378.899 827.155,377.686C826.522,376.455 826.205,374.952 826.205,373.177L826.205,348.445C826.205,347.97 826.293,347.522 826.469,347.1C826.645,346.678 826.882,346.309 827.181,345.993C827.497,345.676 827.867,345.43 828.288,345.255C828.71,345.079 829.167,344.991 829.659,344.991L860.535,344.991L860.535,351.846L833.06,351.846L833.06,373.177C833.06,374.074 833.298,374.759 833.772,375.234C834.247,375.709 834.941,375.946 835.855,375.946L860.535,375.946L860.535,382.801Z" style="fill:rgb(136,158,55);fill-rule:nonzero;"/>
            </g>
            <g id="path197461" transform="matrix(1,0,0,1,0,10)">
                <path d="M911.72,357.7C911.72,359.264 911.527,360.662 911.14,361.892C910.753,363.123 910.226,364.213 909.558,365.162C908.908,366.094 908.152,366.893 907.29,367.561C906.429,368.229 905.524,368.783 904.575,369.222C903.643,369.644 902.694,369.952 901.727,370.145C900.778,370.339 899.881,370.435 899.037,370.435L913.354,382.801L902.744,382.801L888.454,370.421L883.524,370.421L883.524,363.566L899.028,363.566C899.889,363.495 900.671,363.32 901.374,363.038C902.095,362.74 902.71,362.344 903.22,361.852C903.747,361.36 904.152,360.771 904.433,360.085C904.714,359.382 904.855,358.582 904.855,357.686L904.855,353.362C904.855,352.975 904.802,352.685 904.697,352.492C904.609,352.281 904.486,352.131 904.328,352.043C904.187,351.938 904.029,351.876 903.853,351.859C903.695,351.841 903.545,351.832 903.405,351.832L880.782,351.832L880.782,382.787L873.926,382.787L873.926,348.431C873.926,347.957 874.014,347.509 874.19,347.087C874.366,346.665 874.603,346.296 874.902,345.979C875.218,345.663 875.587,345.417 876.009,345.241C876.431,345.065 876.888,344.977 877.38,344.977L903.404,344.977C904.934,344.977 906.226,345.259 907.28,345.821C908.335,346.366 909.187,347.06 909.838,347.904C910.506,348.73 910.98,349.627 911.262,350.594C911.56,351.56 911.71,352.466 911.71,353.309L911.72,357.7Z" style="fill:rgb(136,158,55);fill-rule:nonzero;"/>
            </g>
            <g id="icon" transform="matrix(6.12323e-17,1,-1,6.12323e-17,574.655,201.014)">
                <path d="M192.4,339.36C173.112,339.363 157.119,339.38 156.861,339.397C156.604,339.414 156.181,339.47 155.923,339.521C155.665,339.572 155.256,339.678 155.015,339.756C154.774,339.835 154.362,340.002 154.098,340.129C153.834,340.255 153.412,340.496 153.16,340.664C152.907,340.832 152.54,341.111 152.342,341.284C152.145,341.457 151.865,341.729 151.721,341.89C151.578,342.05 151.353,342.324 151.223,342.498C151.093,342.673 150.894,342.97 150.782,343.159C150.669,343.348 150.487,343.705 150.376,343.952C150.266,344.198 150.113,344.621 150.036,344.89C149.958,345.159 149.86,345.557 149.818,345.775L149.74,346.171L149.719,384.973L164.888,384.974C174.917,384.974 180.226,384.989 180.557,385.017C180.832,385.041 181.224,385.088 181.429,385.123C181.633,385.158 182.008,385.241 182.263,385.306C182.517,385.372 182.913,385.493 183.142,385.576C183.371,385.658 183.803,385.845 184.101,385.992C184.399,386.139 184.806,386.362 185.006,386.487C185.205,386.613 185.552,386.854 185.777,387.022C186.002,387.191 186.44,387.583 186.749,387.892C187.059,388.202 187.45,388.639 187.619,388.864C187.787,389.09 188.028,389.436 188.154,389.636C188.28,389.835 188.502,390.242 188.647,390.54C188.792,390.838 188.978,391.265 189.061,391.489C189.144,391.713 189.265,392.107 189.331,392.365C189.397,392.623 189.481,393.012 189.518,393.23C189.554,393.448 189.603,393.842 189.626,394.106C189.653,394.415 189.668,399.962 189.668,409.754L189.668,424.922L208.83,424.922C221.992,424.922 228.119,424.908 228.398,424.877C228.621,424.853 229.019,424.786 229.282,424.727C229.545,424.669 229.936,424.558 230.149,424.48C230.363,424.403 230.691,424.268 230.88,424.179C231.068,424.091 231.398,423.909 231.615,423.775C231.831,423.641 232.189,423.385 232.411,423.207C232.633,423.028 232.958,422.729 233.135,422.542C233.311,422.355 233.536,422.096 233.636,421.967C233.735,421.838 233.923,421.568 234.054,421.368C234.184,421.167 234.392,420.792 234.516,420.534C234.64,420.275 234.8,419.888 234.871,419.673C234.943,419.458 235.047,419.062 235.103,418.793C235.159,418.523 235.223,418.033 235.245,417.703C235.272,417.318 235.286,404.591 235.286,382.137C235.286,360.322 235.271,346.951 235.246,346.588C235.224,346.267 235.167,345.807 235.119,345.566C235.071,345.325 234.958,344.905 234.867,344.633C234.777,344.36 234.611,343.947 234.499,343.715C234.387,343.483 234.178,343.116 234.035,342.898C233.892,342.681 233.692,342.399 233.59,342.273C233.488,342.146 233.224,341.858 233.001,341.632C232.78,341.407 232.429,341.095 232.222,340.94C232.016,340.785 231.682,340.559 231.479,340.438C231.277,340.317 230.93,340.138 230.708,340.041C230.486,339.943 230.124,339.806 229.903,339.735C229.682,339.665 229.313,339.569 229.082,339.522C228.851,339.474 228.393,339.417 228.065,339.395C227.683,339.369 214.839,339.356 192.399,339.36L192.4,339.36ZM207.61,355.918L217.879,355.929L218.238,356.058C218.436,356.128 218.729,356.274 218.89,356.381C219.051,356.488 219.293,356.694 219.428,356.839C219.562,356.984 219.734,357.208 219.811,357.336C219.887,357.464 219.994,357.698 220.049,357.856C220.104,358.014 220.168,358.312 220.192,358.517C220.22,358.761 220.235,362.315 220.235,368.825L220.235,378.76L214.355,378.76L214.355,365.895L197.488,382.763L195.434,380.709C194.305,379.579 193.38,378.636 193.38,378.613C193.38,378.591 197.166,374.786 201.793,370.159L210.208,361.746L197.328,361.746L197.328,355.906L207.61,355.918ZM161.04,390.858C147.001,390.861 143.248,390.873 142.984,390.915C142.801,390.943 142.501,391.009 142.319,391.061C142.137,391.112 141.822,391.226 141.62,391.314C141.419,391.401 141.065,391.597 140.834,391.748C140.603,391.899 140.239,392.192 140.025,392.4C139.811,392.606 139.52,392.939 139.377,393.139C139.235,393.338 139.035,393.667 138.933,393.869C138.831,394.071 138.694,394.399 138.628,394.598C138.561,394.798 138.472,395.13 138.431,395.337L138.355,395.719L138.355,431.457L138.434,431.832C138.477,432.039 138.577,432.394 138.656,432.622C138.735,432.85 138.853,433.142 138.918,433.271C138.983,433.4 139.154,433.683 139.298,433.899C139.446,434.121 139.734,434.467 139.958,434.691C140.183,434.915 140.528,435.203 140.75,435.351C140.966,435.495 141.248,435.665 141.375,435.73C141.503,435.794 141.773,435.905 141.975,435.977C142.176,436.047 142.458,436.132 142.6,436.165C142.742,436.198 143.046,436.246 143.276,436.272C143.58,436.306 148.485,436.315 161.353,436.305L179.013,436.293L179.419,436.199C179.642,436.147 179.961,436.056 180.128,435.996C180.294,435.936 180.59,435.807 180.785,435.71C180.98,435.612 181.303,435.415 181.502,435.273C181.702,435.13 182.034,434.839 182.241,434.625C182.448,434.411 182.731,434.064 182.869,433.852C183.008,433.64 183.185,433.334 183.262,433.171C183.339,433.008 183.462,432.689 183.534,432.461C183.607,432.234 183.693,431.868 183.726,431.648C183.779,431.304 183.787,428.771 183.787,413.568C183.787,398.241 183.779,395.837 183.726,395.511C183.692,395.304 183.618,394.972 183.56,394.774C183.503,394.576 183.382,394.254 183.292,394.059C183.202,393.865 183.04,393.568 182.931,393.4C182.823,393.231 182.612,392.948 182.463,392.769C182.314,392.59 182.068,392.339 181.916,392.209C181.764,392.08 181.485,391.873 181.295,391.749C181.106,391.625 180.794,391.452 180.603,391.364C180.412,391.275 180.098,391.155 179.905,391.097C179.712,391.038 179.377,390.962 179.159,390.927C178.808,390.87 176.743,390.864 161.041,390.867L161.04,390.858Z" style="fill:rgb(152,93,59);fill-rule:nonzero;"/>
            </g>
        </g>
    </g>
</svg>
