<svg xmlns="http://www.w3.org/2000/svg" xmlns:vectornator="http://vectornator.io" xmlns:xlink="http://www.w3.org/1999/xlink" stroke-miterlimit="10" style="fill-rule:nonzero;clip-rule:evenodd;stroke-linecap:round;stroke-linejoin:round;" version="1.1" xml:space="preserve" viewBox="0 0 777 100">
<defs/>
<clipPath id="ArtboardFrame">
<rect height="100" width="777" x="0" y="0"/>
</clipPath>
<g clip-path="url(#ArtboardFrame)" id="logo-group" vectornator:layerName="logo-group">
<path d="M122.545 63.7608L122.545 80.9638L124.561 80.9638L124.561 75.104L135.179 63.761L132.491 63.761L124.561 72.3088L124.561 63.761L122.545 63.7608ZM126.765 72.7925L133.431 80.964L135.985 80.964L129.292 72.7925L126.765 72.7925Z" fill="#985d3b" fill-rule="nonzero" opacity="1" stroke="none" vectornator:layerName="path"/>
<path d="M141.645 81.1008C144.763 81.1008 146.967 79.3805 147.72 76.3968L145.704 76.3968C145.059 78.144 144.01 79.031 142.613 79.031L140.919 79.031C138.688 79.031 137.532 77.8752 137.425 74.4883L147.935 74.4883L147.935 73.9507C147.935 69.3005 145.516 66.8544 141.645 66.8544C137.774 66.8544 135.355 69.3005 135.355 73.9507C135.355 78.4128 137.613 81.1008 141.645 81.1008ZM137.479 72.6067C137.747 69.8381 138.876 68.8704 140.919 68.8704L142.371 68.8704C144.414 68.8704 145.542 69.838 145.811 72.6067L137.479 72.6067Z" fill="#985d3b" fill-rule="nonzero" opacity="1" stroke="none" vectornator:layerName="path"/>
<path d="M156.235 81.1008C159.353 81.1008 161.557 79.3805 162.31 76.3968L160.294 76.3968C159.649 78.144 158.6 79.031 157.203 79.031L155.509 79.031C153.278 79.031 152.122 77.8752 152.015 74.4883L162.525 74.4883L162.525 73.9507C162.525 69.3005 160.106 66.8544 156.235 66.8544C152.364 66.8544 149.945 69.3005 149.945 73.9507C149.945 78.4128 152.203 81.1008 156.235 81.1008ZM152.069 72.6067C152.337 69.8381 153.466 68.8704 155.509 68.8704L156.961 68.8704C159.004 68.8704 160.132 69.838 160.401 72.6067L152.069 72.6067Z" fill="#985d3b" fill-rule="nonzero" opacity="1" stroke="none" vectornator:layerName="path"/>
<path d="M170.755 81.1308C174.679 81.1308 177.341 78.4697 177.341 73.927C177.341 69.4918 174.679 66.8576 170.755 66.8576C168.981 66.8576 167.583 67.5027 166.562 68.5779L166.562 66.992L164.546 66.992L164.546 84.195L166.562 84.195L166.562 79.3835C167.583 80.4856 168.981 81.1307 170.755 81.1308ZM166.562 75.029L166.562 72.8248C166.562 70.4056 167.744 68.8734 169.922 68.8734L171.669 68.8734C173.846 68.8734 175.325 70.755 175.325 73.9268C175.325 77.0986 173.846 78.9802 171.669 78.9802L169.922 78.9802C167.744 78.9802 166.562 77.448 166.562 75.0288L166.562 75.029Z" fill="#985d3b" fill-rule="nonzero" opacity="1" stroke="none" vectornator:layerName="path"/>
<path d="M189.885 81.1008L190.906 81.1008C193.352 81.1008 196.202 80.9126 196.202 76.8269C196.202 74.0851 193.218 73.3594 190.557 72.6067C188.433 71.9078 186.74 71.7734 186.74 70.2681C186.74 69.0316 187.761 68.8703 189.724 68.8703L190.638 68.8703C193.003 68.8703 193.971 69.1122 193.971 71.2357L195.987 71.2357C195.987 67.7682 193.218 66.8543 190.369 66.8543C187.197 66.8543 184.751 67.3919 184.724 70.4025C184.724 73.3862 187.6 73.8163 190.181 74.6227C192.304 75.2409 194.186 75.7517 194.186 77.1494C194.186 79.031 193.245 79.0848 190.906 79.0848L189.885 79.0848C187.654 79.0848 186.713 78.359 186.713 76.3968L184.697 76.3968C184.697 79.8106 186.74 81.1008 189.885 81.1008Z" fill="#985d3b" fill-rule="nonzero" opacity="1" stroke="none" vectornator:layerName="path"/>
<path d="M204.835 81.1308C206.609 81.1308 208.007 80.4856 209.028 79.3836L209.028 80.9695L211.044 80.9695L211.044 66.9915L209.028 66.9915L209.028 68.5774C208.007 67.5022 206.609 66.8571 204.835 66.8571C200.91 66.8571 198.249 69.4913 198.249 73.9265C198.249 78.4692 200.91 81.1303 204.835 81.1303L204.835 81.1308ZM200.265 73.927C200.265 70.7552 201.744 68.8736 203.921 68.8736L205.668 68.8736C207.846 68.8736 209.028 70.4058 209.028 72.825L209.028 75.0292C209.028 77.4484 207.846 78.9806 205.668 78.9806L203.921 78.9806C201.744 78.9806 200.265 77.099 200.265 73.9272L200.265 73.927Z" fill="#985d3b" fill-rule="nonzero" opacity="1" stroke="none" vectornator:layerName="path"/>
<path d="M215.065 67.8808L215.065 66.9937L213.049 66.9937L213.049 80.9717L215.065 80.9717L215.065 71.9669C215.065 70.0584 216.006 68.8757 217.699 68.8757L218.936 68.8757C220.629 68.8757 221.247 70.0584 221.247 72.5583L221.247 80.9717L223.263 80.9717L223.263 71.9669C223.263 70.0584 224.204 68.8757 225.898 68.8757L227.134 68.8757C228.827 68.8757 229.446 70.0584 229.446 72.5583L229.446 80.9717L231.462 80.9717L231.462 73.1765C231.462 69.037 231.059 66.8597 226.812 66.8597C224.715 66.8597 223.425 67.478 222.699 68.8488C222.081 67.5854 220.817 66.8597 218.344 66.8597C216.812 66.8597 215.764 67.1823 215.065 67.8811L215.065 67.8808Z" fill="#985d3b" fill-rule="nonzero" opacity="1" stroke="none" vectornator:layerName="path"/>
<path d="M239.765 81.1008C242.883 81.1008 245.087 79.3805 245.84 76.3968L243.824 76.3968C243.179 78.144 242.13 79.031 240.733 79.031L239.039 79.031C236.808 79.031 235.652 77.8752 235.545 74.4883L246.055 74.4883L246.055 73.9507C246.055 69.3005 243.636 66.8544 239.765 66.8544C235.894 66.8544 233.475 69.3005 233.475 73.9507C233.475 78.4128 235.733 81.1008 239.765 81.1008ZM235.599 72.6067C235.867 69.8381 236.996 68.8704 239.039 68.8704L240.491 68.8704C242.534 68.8704 243.662 69.838 243.931 72.6067L235.599 72.6067Z" fill="#985d3b" fill-rule="nonzero" opacity="1" stroke="none" vectornator:layerName="path"/>
<path d="M260.015 81.1308C261.789 81.1308 263.187 80.4856 264.208 79.3836L264.208 80.9695L266.224 80.9695L266.224 66.9915L264.208 66.9915L264.208 68.5774C263.187 67.5022 261.789 66.8571 260.015 66.8571C256.09 66.8571 253.429 69.4913 253.429 73.9265C253.429 78.4692 256.09 81.1303 260.015 81.1303L260.015 81.1308ZM255.445 73.927C255.445 70.7552 256.924 68.8736 259.101 68.8736L260.848 68.8736C263.026 68.8736 264.208 70.4058 264.208 72.825L264.208 75.0292C264.208 77.4484 263.026 78.9806 260.848 78.9806L259.101 78.9806C256.924 78.9806 255.445 77.099 255.445 73.9272L255.445 73.927Z" fill="#985d3b" fill-rule="nonzero" opacity="1" stroke="none" vectornator:layerName="path"/>
<path d="M270.245 68.2008L270.245 66.9912L268.229 66.9912L268.229 80.9692L270.245 80.9692L270.245 71.9644C270.245 70.0559 271.186 68.8732 272.879 68.8732L275.325 68.8732C277.019 68.8732 277.906 70.0559 277.906 72.5558L277.906 80.9692L279.922 80.9692L279.922 73.174C279.922 69.0345 278.309 66.8572 274.062 66.8572C272.315 66.8572 271.078 67.2872 270.245 68.2012L270.245 68.2008Z" fill="#985d3b" fill-rule="nonzero" opacity="1" stroke="none" vectornator:layerName="path"/>
<path d="M288.515 81.1308C290.289 81.1308 291.687 80.4856 292.708 79.3836L292.708 80.9695L294.724 80.9695L294.724 63.7665L292.708 63.7665L292.708 68.578C291.687 67.5028 290.289 66.8577 288.515 66.8577C284.59 66.8577 281.929 69.4919 281.929 73.9271C281.929 78.4698 284.59 81.1309 288.515 81.1308ZM283.945 73.927C283.945 70.7552 285.424 68.8736 287.601 68.8736L289.348 68.8736C291.526 68.8736 292.708 70.4058 292.708 72.825L292.708 75.0292C292.708 77.4484 291.526 78.9806 289.348 78.9806L287.601 78.9806C285.424 78.9806 283.945 77.099 283.945 73.9272L283.945 73.927Z" fill="#985d3b" fill-rule="nonzero" opacity="1" stroke="none" vectornator:layerName="path"/>
<path d="M308.385 81.1008C311.503 81.1008 313.707 79.3805 314.46 76.3968L312.444 76.3968C311.799 78.144 310.75 79.031 309.353 79.031L307.605 79.031C305.267 79.031 304.111 77.7408 304.111 73.9507C304.111 70.1606 305.267 68.8704 307.605 68.8704L309.406 68.8704C310.804 68.8704 311.745 69.7036 312.363 71.2896L314.379 71.2896C313.573 68.3059 311.342 66.8544 308.385 66.8544C304.514 66.8544 302.095 69.3005 302.095 73.9507C302.095 78.4128 304.353 81.1008 308.385 81.1008Z" fill="#985d3b" fill-rule="nonzero" opacity="1" stroke="none" vectornator:layerName="path"/>
<path d="M318.495 68.2008L318.495 66.9912L316.479 66.9912L316.479 80.9692L318.495 80.9692L318.495 71.9644C318.495 70.0559 319.436 68.8732 321.129 68.8732L322.312 68.8732L322.312 66.8572C320.565 66.8572 319.328 67.2872 318.495 68.2012L318.495 68.2008Z" fill="#985d3b" fill-rule="nonzero" opacity="1" stroke="none" vectornator:layerName="path"/>
<path d="M329.685 81.1008C333.851 81.1008 336.405 78.5472 336.405 73.9507C336.405 69.5424 334.04 66.8544 329.685 66.8544C325.519 66.8544 322.992 69.3542 322.992 73.9507C322.992 78.4665 325.277 81.1008 329.685 81.1008ZM325.008 73.9238C325.008 70.752 326.513 68.8704 328.664 68.8704L330.733 68.8704C332.884 68.8704 334.389 70.752 334.389 73.9238C334.389 77.0956 332.884 78.9772 330.733 78.9772L328.664 78.9772C326.513 78.9772 325.008 77.0956 325.008 73.9238Z" fill="#985d3b" fill-rule="nonzero" opacity="1" stroke="none" vectornator:layerName="path"/>
<path d="M343.085 81.1008L344.106 81.1008C346.552 81.1008 349.402 80.9126 349.402 76.8269C349.402 74.0851 346.418 73.3594 343.757 72.6067C341.633 71.9078 339.94 71.7734 339.94 70.2681C339.94 69.0316 340.961 68.8703 342.924 68.8703L343.838 68.8703C346.203 68.8703 347.171 69.1122 347.171 71.2357L349.187 71.2357C349.187 67.7682 346.418 66.8543 343.569 66.8543C340.397 66.8543 337.951 67.3919 337.924 70.4025C337.924 73.3862 340.8 73.8163 343.381 74.6227C345.504 75.2409 347.386 75.7517 347.386 77.1494C347.386 79.031 346.445 79.0848 344.106 79.0848L343.085 79.0848C340.854 79.0848 339.913 78.359 339.913 76.3968L337.897 76.3968C337.897 79.8106 339.94 81.1008 343.085 81.1008Z" fill="#985d3b" fill-rule="nonzero" opacity="1" stroke="none" vectornator:layerName="path"/>
<path d="M356.625 81.1008L357.646 81.1008C360.092 81.1008 362.942 80.9126 362.942 76.8269C362.942 74.0851 359.958 73.3594 357.297 72.6067C355.173 71.9078 353.48 71.7734 353.48 70.2681C353.48 69.0316 354.501 68.8703 356.464 68.8703L357.378 68.8703C359.743 68.8703 360.711 69.1122 360.711 71.2357L362.727 71.2357C362.727 67.7682 359.958 66.8543 357.109 66.8543C353.937 66.8543 351.491 67.3919 351.464 70.4025C351.464 73.3862 354.34 73.8163 356.921 74.6227C359.044 75.2409 360.926 75.7517 360.926 77.1494C360.926 79.031 359.985 79.0848 357.646 79.0848L356.625 79.0848C354.394 79.0848 353.453 78.359 353.453 76.3968L351.437 76.3968C351.437 79.8106 353.48 81.1008 356.625 81.1008Z" fill="#985d3b" fill-rule="nonzero" opacity="1" stroke="none" vectornator:layerName="path"/>
<path d="M376.925 81.1308C378.699 81.1308 380.097 80.4856 381.118 79.3836L381.118 80.9695L383.134 80.9695L383.134 63.7665L381.118 63.7665L381.118 68.578C380.097 67.5028 378.699 66.8577 376.925 66.8577C373 66.8577 370.339 69.4919 370.339 73.9271C370.339 78.4698 373 81.1309 376.925 81.1308ZM372.355 73.927C372.355 70.7552 373.834 68.8736 376.011 68.8736L377.758 68.8736C379.936 68.8736 381.118 70.4058 381.118 72.825L381.118 75.0292C381.118 77.4484 379.936 78.9806 377.758 78.9806L376.011 78.9806C373.834 78.9806 372.355 77.099 372.355 73.9272L372.355 73.927Z" fill="#985d3b" fill-rule="nonzero" opacity="1" stroke="none" vectornator:layerName="path"/>
<path d="M391.845 81.1008C396.011 81.1008 398.565 78.5472 398.565 73.9507C398.565 69.5424 396.2 66.8544 391.845 66.8544C387.679 66.8544 385.152 69.3542 385.152 73.9507C385.152 78.4665 387.437 81.1008 391.845 81.1008ZM387.168 73.9238C387.168 70.752 388.673 68.8704 390.824 68.8704L392.893 68.8704C395.044 68.8704 396.549 70.752 396.549 73.9238C396.549 77.0956 395.044 78.9772 392.893 78.9772L390.824 78.9772C388.673 78.9772 387.168 77.0956 387.168 73.9238Z" fill="#985d3b" fill-rule="nonzero" opacity="1" stroke="none" vectornator:layerName="path"/>
<path d="M402.595 67.8808L402.595 66.9937L400.579 66.9937L400.579 80.9717L402.595 80.9717L402.595 71.9669C402.595 70.0584 403.536 68.8757 405.229 68.8757L406.466 68.8757C408.159 68.8757 408.777 70.0584 408.777 72.5583L408.777 80.9717L410.793 80.9717L410.793 71.9669C410.793 70.0584 411.734 68.8757 413.428 68.8757L414.664 68.8757C416.357 68.8757 416.976 70.0584 416.976 72.5583L416.976 80.9717L418.992 80.9717L418.992 73.1765C418.992 69.037 418.589 66.8597 414.342 66.8597C412.245 66.8597 410.955 67.478 410.229 68.8488C409.611 67.5854 408.347 66.8597 405.874 66.8597C404.342 66.8597 403.294 67.1823 402.595 67.8811L402.595 67.8808Z" fill="#985d3b" fill-rule="nonzero" opacity="1" stroke="none" vectornator:layerName="path"/>
<path d="M427.595 81.1308C429.369 81.1308 430.767 80.4856 431.788 79.3836L431.788 80.9695L433.804 80.9695L433.804 66.9915L431.788 66.9915L431.788 68.5774C430.767 67.5022 429.369 66.8571 427.595 66.8571C423.67 66.8571 421.009 69.4913 421.009 73.9265C421.009 78.4692 423.67 81.1303 427.595 81.1303L427.595 81.1308ZM423.025 73.927C423.025 70.7552 424.504 68.8736 426.681 68.8736L428.428 68.8736C430.606 68.8736 431.788 70.4058 431.788 72.825L431.788 75.0292C431.788 77.4484 430.606 78.9806 428.428 78.9806L426.681 78.9806C424.504 78.9806 423.025 77.099 423.025 73.9272L423.025 73.927Z" fill="#985d3b" fill-rule="nonzero" opacity="1" stroke="none" vectornator:layerName="path"/>
<path d="M437.825 80.9708L437.825 66.9928L435.809 66.9928L435.809 80.9708L437.825 80.9708ZM435.809 65.7838L437.825 65.7838L437.825 63.7678L435.809 63.7678L435.809 65.7838Z" fill="#985d3b" fill-rule="nonzero" opacity="1" stroke="none" vectornator:layerName="path"/>
<path d="M441.865 68.2008L441.865 66.9912L439.849 66.9912L439.849 80.9692L441.865 80.9692L441.865 71.9644C441.865 70.0559 442.806 68.8732 444.499 68.8732L446.945 68.8732C448.639 68.8732 449.526 70.0559 449.526 72.5558L449.526 80.9692L451.542 80.9692L451.542 73.174C451.542 69.0345 449.929 66.8572 445.682 66.8572C443.935 66.8572 442.698 67.2872 441.865 68.2012L441.865 68.2008Z" fill="#985d3b" fill-rule="nonzero" opacity="1" stroke="none" vectornator:layerName="path"/>
<path d="M460.925 80.9708L460.925 66.9928L458.909 66.9928L458.909 80.9708L460.925 80.9708ZM458.909 65.7838L460.925 65.7838L460.925 63.7678L458.909 63.7678L458.909 65.7838Z" fill="#985d3b" fill-rule="nonzero" opacity="1" stroke="none" vectornator:layerName="path"/>
<path d="M462.955 67.0708L462.955 80.9948L464.971 80.9948L464.971 70.3768L468.116 70.3768L468.116 68.3608L464.971 68.3608L464.971 67.0706C464.971 66.0223 465.186 65.7804 466.234 65.7804L468.116 65.7804L468.116 63.7644L466.234 63.7644C464.191 63.7644 462.955 65.0278 462.955 67.0706L462.955 67.0708Z" fill="#985d3b" fill-rule="nonzero" opacity="1" stroke="none" vectornator:layerName="path"/>
<path d="M472.165 68.2008L472.165 66.9912L470.149 66.9912L470.149 80.9692L472.165 80.9692L472.165 71.9644C472.165 70.0559 473.106 68.8732 474.799 68.8732L475.982 68.8732L475.982 66.8572C474.235 66.8572 472.998 67.2872 472.165 68.2012L472.165 68.2008Z" fill="#985d3b" fill-rule="nonzero" opacity="1" stroke="none" vectornator:layerName="path"/>
<path d="M483.245 81.1308C485.019 81.1308 486.417 80.4856 487.438 79.3836L487.438 80.9695L489.454 80.9695L489.454 66.9915L487.438 66.9915L487.438 68.5774C486.417 67.5022 485.019 66.8571 483.245 66.8571C479.32 66.8571 476.659 69.4913 476.659 73.9265C476.659 78.4692 479.32 81.1303 483.245 81.1303L483.245 81.1308ZM478.675 73.927C478.675 70.7552 480.154 68.8736 482.331 68.8736L484.078 68.8736C486.256 68.8736 487.438 70.4058 487.438 72.825L487.438 75.0292C487.438 77.4484 486.256 78.9806 484.078 78.9806L482.331 78.9806C480.154 78.9806 478.675 77.099 478.675 73.9272L478.675 73.927Z" fill="#985d3b" fill-rule="nonzero" opacity="1" stroke="none" vectornator:layerName="path"/>
<path d="M493.475 67.8808L493.475 66.9937L491.459 66.9937L491.459 80.9717L493.475 80.9717L493.475 71.9669C493.475 70.0584 494.416 68.8757 496.109 68.8757L497.346 68.8757C499.039 68.8757 499.657 70.0584 499.657 72.5583L499.657 80.9717L501.673 80.9717L501.673 71.9669C501.673 70.0584 502.614 68.8757 504.308 68.8757L505.544 68.8757C507.237 68.8757 507.856 70.0584 507.856 72.5583L507.856 80.9717L509.872 80.9717L509.872 73.1765C509.872 69.037 509.469 66.8597 505.222 66.8597C503.125 66.8597 501.835 67.478 501.109 68.8488C500.491 67.5854 499.227 66.8597 496.754 66.8597C495.222 66.8597 494.174 67.1823 493.475 67.8811L493.475 67.8808Z" fill="#985d3b" fill-rule="nonzero" opacity="1" stroke="none" vectornator:layerName="path"/>
<path d="M518.175 81.1008C521.293 81.1008 523.497 79.3805 524.25 76.3968L522.234 76.3968C521.589 78.144 520.54 79.031 519.143 79.031L517.449 79.031C515.218 79.031 514.062 77.8752 513.955 74.4883L524.465 74.4883L524.465 73.9507C524.465 69.3005 522.046 66.8544 518.175 66.8544C514.304 66.8544 511.885 69.3005 511.885 73.9507C511.885 78.4128 514.143 81.1008 518.175 81.1008ZM514.009 72.6067C514.277 69.8381 515.406 68.8704 517.449 68.8704L518.901 68.8704C520.944 68.8704 522.072 69.838 522.341 72.6067L514.009 72.6067Z" fill="#985d3b" fill-rule="nonzero" opacity="1" stroke="none" vectornator:layerName="path"/>
<path d="M531.135 81.1008L532.156 81.1008C534.602 81.1008 537.452 80.9126 537.452 76.8269C537.452 74.0851 534.468 73.3594 531.807 72.6067C529.683 71.9078 527.99 71.7734 527.99 70.2681C527.99 69.0316 529.011 68.8703 530.974 68.8703L531.888 68.8703C534.253 68.8703 535.221 69.1122 535.221 71.2357L537.237 71.2357C537.237 67.7682 534.468 66.8543 531.619 66.8543C528.447 66.8543 526.001 67.3919 525.974 70.4025C525.974 73.3862 528.85 73.8163 531.431 74.6227C533.554 75.2409 535.436 75.7517 535.436 77.1494C535.436 79.031 534.495 79.0848 532.156 79.0848L531.135 79.0848C528.904 79.0848 527.963 78.359 527.963 76.3968L525.947 76.3968C525.947 79.8106 527.99 81.1008 531.135 81.1008Z" fill="#985d3b" fill-rule="nonzero" opacity="1" stroke="none" vectornator:layerName="path"/>
<path d="M550.035 81.1008L551.056 81.1008C553.502 81.1008 556.352 80.9126 556.352 76.8269C556.352 74.0851 553.368 73.3594 550.707 72.6067C548.583 71.9078 546.89 71.7734 546.89 70.2681C546.89 69.0316 547.911 68.8703 549.874 68.8703L550.788 68.8703C553.153 68.8703 554.121 69.1122 554.121 71.2357L556.137 71.2357C556.137 67.7682 553.368 66.8543 550.519 66.8543C547.347 66.8543 544.901 67.3919 544.874 70.4025C544.874 73.3862 547.75 73.8163 550.331 74.6227C552.454 75.2409 554.336 75.7517 554.336 77.1494C554.336 79.031 553.395 79.0848 551.056 79.0848L550.035 79.0848C547.804 79.0848 546.863 78.359 546.863 76.3968L544.847 76.3968C544.847 79.8106 546.89 81.1008 550.035 81.1008Z" fill="#985d3b" fill-rule="nonzero" opacity="1" stroke="none" vectornator:layerName="path"/>
<path d="M560.415 80.9708L560.415 66.9928L558.399 66.9928L558.399 80.9708L560.415 80.9708ZM558.399 65.7838L560.415 65.7838L560.415 63.7678L558.399 63.7678L558.399 65.7838Z" fill="#985d3b" fill-rule="nonzero" opacity="1" stroke="none" vectornator:layerName="path"/>
<path d="M572.515 69.0108L572.515 66.9948L562.435 66.9948L562.435 69.0108L570.096 69.0108L562.489 78.9564L562.435 78.9564L562.435 80.9724L572.784 80.9724L572.784 78.9564L564.908 78.9564L572.515 69.0108Z" fill="#985d3b" fill-rule="nonzero" opacity="1" stroke="none" vectornator:layerName="path"/>
<path d="M580.595 81.1008C583.713 81.1008 585.917 79.3805 586.67 76.3968L584.654 76.3968C584.009 78.144 582.96 79.031 581.563 79.031L579.869 79.031C577.638 79.031 576.482 77.8752 576.375 74.4883L586.885 74.4883L586.885 73.9507C586.885 69.3005 584.466 66.8544 580.595 66.8544C576.724 66.8544 574.305 69.3005 574.305 73.9507C574.305 78.4128 576.563 81.1008 580.595 81.1008ZM576.429 72.6067C576.697 69.8381 577.826 68.8704 579.869 68.8704L581.321 68.8704C583.364 68.8704 584.492 69.838 584.761 72.6067L576.429 72.6067Z" fill="#985d3b" fill-rule="nonzero" opacity="1" stroke="none" vectornator:layerName="path"/>
<path d="M595.485 81.1308C597.259 81.1308 598.657 80.4856 599.678 79.3836L599.678 80.9695L601.694 80.9695L601.694 63.7665L599.678 63.7665L599.678 68.578C598.657 67.5028 597.259 66.8577 595.485 66.8577C591.56 66.8577 588.899 69.4919 588.899 73.9271C588.899 78.4698 591.56 81.1309 595.485 81.1308ZM590.915 73.927C590.915 70.7552 592.394 68.8736 594.571 68.8736L596.318 68.8736C598.496 68.8736 599.678 70.4058 599.678 72.825L599.678 75.0292C599.678 77.4484 598.496 78.9806 596.318 78.9806L594.571 78.9806C592.394 78.9806 590.915 77.099 590.915 73.9272L590.915 73.927Z" fill="#985d3b" fill-rule="nonzero" opacity="1" stroke="none" vectornator:layerName="path"/>
<path d="M612.335 80.9708L614.217 80.9708L614.217 78.9548L612.335 78.9548C611.287 78.9548 611.072 78.7397 611.072 77.6914L611.072 69.0092L614.217 69.0092L614.217 66.9932L611.072 66.9932L611.072 63.7676L609.056 63.7676L609.056 77.6916C609.056 79.7345 610.292 80.971 612.335 80.971L612.335 80.9708Z" fill="#985d3b" fill-rule="nonzero" opacity="1" stroke="none" vectornator:layerName="path"/>
<path d="M622.425 81.1008C626.591 81.1008 629.145 78.5472 629.145 73.9507C629.145 69.5424 626.78 66.8544 622.425 66.8544C618.259 66.8544 615.732 69.3542 615.732 73.9507C615.732 78.4665 618.017 81.1008 622.425 81.1008ZM617.748 73.9238C617.748 70.752 619.253 68.8704 621.404 68.8704L623.473 68.8704C625.624 68.8704 627.129 70.752 627.129 73.9238C627.129 77.0956 625.624 78.9772 623.473 78.9772L621.404 78.9772C619.253 78.9772 617.748 77.0956 617.748 73.9238Z" fill="#985d3b" fill-rule="nonzero" opacity="1" stroke="none" vectornator:layerName="path"/>
<path d="M639.795 80.9708L641.677 80.9708L641.677 78.9548L639.795 78.9548C638.747 78.9548 638.532 78.7397 638.532 77.6914L638.532 69.0092L641.677 69.0092L641.677 66.9932L638.532 66.9932L638.532 63.7676L636.516 63.7676L636.516 77.6916C636.516 79.7345 637.752 80.971 639.795 80.971L639.795 80.9708Z" fill="#985d3b" fill-rule="nonzero" opacity="1" stroke="none" vectornator:layerName="path"/>
<path d="M645.725 68.2008L645.725 63.7656L643.709 63.7656L643.709 80.9686L645.725 80.9686L645.725 71.9638C645.725 70.0553 646.666 68.8726 648.359 68.8726L650.805 68.8726C652.499 68.8726 653.386 70.0553 653.386 72.5552L653.386 80.9686L655.402 80.9686L655.402 73.1734C655.402 69.0339 653.789 66.8566 649.542 66.8566C647.795 66.8566 646.558 67.2866 645.725 68.2006L645.725 68.2008Z" fill="#985d3b" fill-rule="nonzero" opacity="1" stroke="none" vectornator:layerName="path"/>
<path d="M663.705 81.1008C666.823 81.1008 669.027 79.3805 669.78 76.3968L667.764 76.3968C667.119 78.144 666.07 79.031 664.673 79.031L662.979 79.031C660.748 79.031 659.592 77.8752 659.485 74.4883L669.995 74.4883L669.995 73.9507C669.995 69.3005 667.576 66.8544 663.705 66.8544C659.834 66.8544 657.415 69.3005 657.415 73.9507C657.415 78.4128 659.673 81.1008 663.705 81.1008ZM659.539 72.6067C659.807 69.8381 660.936 68.8704 662.979 68.8704L664.431 68.8704C666.474 68.8704 667.602 69.838 667.871 72.6067L659.539 72.6067Z" fill="#985d3b" fill-rule="nonzero" opacity="1" stroke="none" vectornator:layerName="path"/>
<path d="M674.025 80.9708L674.025 66.9928L672.009 66.9928L672.009 80.9708L674.025 80.9708ZM672.009 65.7838L674.025 65.7838L674.025 63.7678L672.009 63.7678L672.009 65.7838Z" fill="#985d3b" fill-rule="nonzero" opacity="1" stroke="none" vectornator:layerName="path"/>
<path d="M678.065 68.2008L678.065 66.9912L676.049 66.9912L676.049 80.9692L678.065 80.9692L678.065 71.9644C678.065 70.0559 679.006 68.8732 680.699 68.8732L681.882 68.8732L681.882 66.8572C680.135 66.8572 678.898 67.2872 678.065 68.2012L678.065 68.2008Z" fill="#985d3b" fill-rule="nonzero" opacity="1" stroke="none" vectornator:layerName="path"/>
<path d="M695.565 81.1008C698.683 81.1008 700.887 79.3805 701.64 76.3968L699.624 76.3968C698.979 78.144 697.93 79.031 696.533 79.031L694.785 79.031C692.447 79.031 691.291 77.7408 691.291 73.9507C691.291 70.1606 692.447 68.8704 694.785 68.8704L696.586 68.8704C697.984 68.8704 698.925 69.7036 699.543 71.2896L701.559 71.2896C700.753 68.3059 698.522 66.8544 695.565 66.8544C691.694 66.8544 689.275 69.3005 689.275 73.9507C689.275 78.4128 691.533 81.1008 695.565 81.1008L695.565 81.1008Z" fill="#985d3b" fill-rule="nonzero" opacity="1" stroke="none" vectornator:layerName="path"/>
<path d="M710.355 81.1008C714.521 81.1008 717.075 78.5472 717.075 73.9507C717.075 69.5424 714.71 66.8544 710.355 66.8544C706.189 66.8544 703.662 69.3542 703.662 73.9507C703.662 78.4665 705.947 81.1008 710.355 81.1008ZM705.678 73.9238C705.678 70.752 707.183 68.8704 709.334 68.8704L711.403 68.8704C713.554 68.8704 715.059 70.752 715.059 73.9238C715.059 77.0956 713.554 78.9772 711.403 78.9772L709.334 78.9772C707.183 78.9772 705.678 77.0956 705.678 73.9238Z" fill="#985d3b" fill-rule="nonzero" opacity="1" stroke="none" vectornator:layerName="path"/>
<path d="M721.115 68.2008L721.115 66.9912L719.099 66.9912L719.099 80.9692L721.115 80.9692L721.115 71.9644C721.115 70.0559 722.056 68.8732 723.749 68.8732L726.195 68.8732C727.889 68.8732 728.776 70.0559 728.776 72.5558L728.776 80.9692L730.792 80.9692L730.792 73.174C730.792 69.0345 729.179 66.8572 724.932 66.8572C723.185 66.8572 721.948 67.2872 721.115 68.2012L721.115 68.2008Z" fill="#985d3b" fill-rule="nonzero" opacity="1" stroke="none" vectornator:layerName="path"/>
<path d="M736.345 80.9708L738.227 80.9708L738.227 78.9548L736.345 78.9548C735.297 78.9548 735.082 78.7397 735.082 77.6914L735.082 69.0092L738.227 69.0092L738.227 66.9932L735.082 66.9932L735.082 63.7676L733.066 63.7676L733.066 77.6916C733.066 79.7345 734.302 80.971 736.345 80.971L736.345 80.9708Z" fill="#985d3b" fill-rule="nonzero" opacity="1" stroke="none" vectornator:layerName="path"/>
<path d="M746.025 81.1008C749.143 81.1008 751.347 79.3805 752.1 76.3968L750.084 76.3968C749.439 78.144 748.39 79.031 746.993 79.031L745.299 79.031C743.068 79.031 741.912 77.8752 741.805 74.4883L752.315 74.4883L752.315 73.9507C752.315 69.3005 749.896 66.8544 746.025 66.8544C742.154 66.8544 739.735 69.3005 739.735 73.9507C739.735 78.4128 741.993 81.1008 746.025 81.1008ZM741.859 72.6067C742.127 69.8381 743.256 68.8704 745.299 68.8704L746.751 68.8704C748.794 68.8704 749.922 69.838 750.191 72.6067L741.859 72.6067Z" fill="#985d3b" fill-rule="nonzero" opacity="1" stroke="none" vectornator:layerName="path"/>
<path d="M756.345 68.2008L756.345 66.9912L754.329 66.9912L754.329 80.9692L756.345 80.9692L756.345 71.9644C756.345 70.0559 757.286 68.8732 758.979 68.8732L761.425 68.8732C763.119 68.8732 764.006 70.0559 764.006 72.5558L764.006 80.9692L766.022 80.9692L766.022 73.174C766.022 69.0345 764.409 66.8572 760.162 66.8572C758.415 66.8572 757.178 67.2872 756.345 68.2012L756.345 68.2008Z" fill="#985d3b" fill-rule="nonzero" opacity="1" stroke="none" vectornator:layerName="path"/>
<path d="M771.575 80.9708L773.457 80.9708L773.457 78.9548L771.575 78.9548C770.527 78.9548 770.312 78.7397 770.312 77.6914L770.312 69.0092L773.457 69.0092L773.457 66.9932L770.312 66.9932L770.312 63.7676L768.296 63.7676L768.296 77.6916C768.296 79.7345 769.532 80.971 771.575 80.971L771.575 80.9708Z" fill="#985d3b" fill-rule="nonzero" opacity="1" stroke="none" vectornator:layerName="path"/>
<path d="M129.395 43.4408L122.539 43.4408L122.539 5.62977L129.395 5.62977L129.395 43.4408Z" fill="#889e37" fill-rule="nonzero" opacity="1" stroke="none" vectornator:layerName="path"/>
<path d="M175.485 27.9908L153.811 27.9908L153.811 21.0826L175.485 21.0826L175.485 27.9908ZM178.544 12.4868L151.069 12.4868L151.069 43.4418L144.213 43.4418L144.213 9.08577C144.213 8.61116 144.301 8.16293 144.477 7.74107C144.653 7.31919 144.89 6.95006 145.189 6.63367C145.505 6.31726 145.874 6.07116 146.296 5.89538C146.718 5.7196 147.175 5.63171 147.667 5.63171L178.543 5.63171L178.544 12.4868Z" fill="#889e37" fill-rule="nonzero" opacity="1" stroke="none" vectornator:layerName="path"/>
<path d="M228.615 18.3408C228.615 19.9052 228.422 21.3027 228.035 22.5332C227.648 23.7636 227.121 24.8535 226.453 25.8027C225.802 26.7343 225.047 27.5341 224.185 28.2021C223.324 28.8701 222.419 29.4238 221.469 29.8632C220.538 30.285 219.589 30.5927 218.622 30.786C217.673 30.9794 216.776 31.0761 215.932 31.0761L230.249 43.4421L219.649 43.4421L205.358 31.0761L200.428 31.0761L200.428 24.2206L215.932 24.2206C216.793 24.1502 217.575 23.9745 218.278 23.6932C218.999 23.3944 219.614 22.9989 220.124 22.5067C220.651 22.0145 221.056 21.4257 221.337 20.7401C221.618 20.037 221.759 19.2372 221.759 18.3407L221.759 14.0165C221.759 13.6298 221.706 13.3398 221.601 13.1464C221.513 12.9355 221.39 12.7861 221.232 12.6982C221.091 12.5927 220.933 12.5312 220.757 12.5136C220.599 12.496 220.449 12.4872 220.309 12.4872L197.686 12.4872L197.686 43.4422L190.83 43.4422L190.83 9.08619C190.83 8.61158 190.918 8.16335 191.094 7.74149C191.27 7.31961 191.507 6.95048 191.806 6.63409C192.122 6.31768 192.491 6.07158 192.913 5.8958C193.335 5.72002 193.792 5.63213 194.284 5.63213L220.308 5.63213C221.838 5.63213 223.13 5.91338 224.184 6.47588C225.239 7.0208 226.091 7.71514 226.742 8.55888C227.41 9.38508 227.884 10.2815 228.166 11.2483C228.464 12.2151 228.614 13.1203 228.614 13.9641L228.615 18.3408Z" fill="#889e37" fill-rule="nonzero" opacity="1" stroke="none" vectornator:layerName="path"/>
<path d="M279.405 43.4408L272.549 43.4408L272.549 34.1596L248.449 34.1596L248.449 43.4408L241.594 43.4408L241.594 24.5358C241.594 21.776 242.069 19.236 243.018 16.9157C243.967 14.5953 245.285 12.6002 246.973 10.9303C248.66 9.26033 250.655 7.95953 252.958 7.02787C255.261 6.0962 257.775 5.63037 260.499 5.63037L275.95 5.63037C276.425 5.63037 276.873 5.71826 277.295 5.89404C277.717 6.06982 278.086 6.31592 278.402 6.63233C278.719 6.94873 278.965 7.31787 279.141 7.73973C279.316 8.1616 279.404 8.60983 279.404 9.08443L279.405 43.4408ZM248.445 27.3008L272.545 27.3008L272.545 12.4828L260.495 12.4828C260.284 12.4828 259.836 12.5179 259.15 12.5882C258.482 12.641 257.7 12.7904 256.804 13.0365C255.925 13.2826 254.993 13.6605 254.009 14.1703C253.024 14.68 252.119 15.3832 251.293 16.2797C250.467 17.1761 249.781 18.3011 249.236 19.6547C248.709 20.9906 248.445 22.6166 248.445 24.5326L248.445 27.3008Z" fill="#889e37" fill-rule="nonzero" opacity="1" stroke="none" vectornator:layerName="path"/>
<path d="M338.095 43.4408L331.187 43.4408L331.187 20.9228L319.032 42.3068C318.733 42.8517 318.311 43.2648 317.766 43.5461C317.239 43.8273 316.668 43.9679 316.052 43.9679C315.455 43.9679 314.892 43.8273 314.365 43.5461C313.855 43.2648 313.451 42.8517 313.152 42.3068L300.944 20.9228L300.944 43.4408L294.088 43.4408L294.088 8.55677C294.088 7.76577 294.317 7.06263 294.774 6.44737C295.249 5.83213 295.864 5.41903 296.62 5.20807C296.989 5.12017 297.358 5.09381 297.727 5.12897C298.096 5.14657 298.448 5.22567 298.782 5.36627C299.133 5.48931 299.45 5.67388 299.731 5.91998C300.012 6.1485 300.249 6.42975 300.443 6.76373L316.052 33.8957L331.661 6.76373C332.065 6.09573 332.619 5.62113 333.322 5.33993C334.043 5.05868 334.79 5.01474 335.563 5.2081C336.301 5.41903 336.908 5.83213 337.382 6.4474C337.857 7.06263 338.094 7.76576 338.094 8.5568L338.095 43.4408Z" fill="#889e37" fill-rule="nonzero" opacity="1" stroke="none" vectornator:layerName="path"/>
<path d="M383.915 27.9908L362.268 27.9908L362.268 21.0826L383.915 21.0826L383.915 27.9908ZM387 43.4418L362.268 43.4418C361.319 43.4418 360.282 43.2748 359.157 42.9408C358.032 42.6068 356.986 42.0619 356.019 41.306C355.07 40.5325 354.27 39.5394 353.62 38.3265C352.987 37.096 352.67 35.5931 352.67 33.8177L352.67 9.08569C352.67 8.61108 352.758 8.16285 352.934 7.74099C353.11 7.31911 353.347 6.94998 353.646 6.63359C353.962 6.31718 354.331 6.07108 354.753 5.8953C355.175 5.71952 355.632 5.63163 356.124 5.63163L387 5.63163L387 12.4871L359.525 12.4871L359.525 33.8181C359.525 34.7146 359.763 35.4001 360.237 35.8747C360.712 36.3493 361.406 36.5866 362.32 36.5866L387 36.5866L387 43.4418Z" fill="#889e37" fill-rule="nonzero" opacity="1" stroke="none" vectornator:layerName="path"/>
<path d="M441.825 27.6208L417.093 27.6208L417.093 21.4509L441.825 21.4509L441.825 27.6208Z" fill="#889e37" fill-rule="nonzero" opacity="1" stroke="none" vectornator:layerName="path"/>
<path d="M511.065 18.3408C511.065 19.9052 510.872 21.3027 510.485 22.5332C510.098 23.7636 509.571 24.8535 508.903 25.8027C508.252 26.7343 507.497 27.5341 506.635 28.2021C505.774 28.8701 504.869 29.4238 503.919 29.8632C502.988 30.285 502.039 30.5927 501.072 30.786C500.123 30.9794 499.226 31.0761 498.382 31.0761L512.699 43.4421L502.099 43.4421L487.808 31.0761L482.878 31.0761L482.878 24.2206L498.382 24.2206C499.243 24.1502 500.025 23.9745 500.728 23.6932C501.449 23.3944 502.064 22.9989 502.574 22.5067C503.101 22.0145 503.506 21.4257 503.787 20.7401C504.068 20.037 504.209 19.2372 504.209 18.3407L504.209 14.0165C504.209 13.6298 504.156 13.3398 504.051 13.1464C503.963 12.9355 503.84 12.7861 503.682 12.6982C503.541 12.5927 503.383 12.5312 503.207 12.5136C503.049 12.496 502.899 12.4872 502.759 12.4872L480.136 12.4872L480.136 43.4422L473.28 43.4422L473.28 9.08619C473.28 8.61158 473.368 8.16335 473.544 7.74149C473.72 7.31961 473.957 6.95048 474.256 6.63409C474.572 6.31768 474.941 6.07158 475.363 5.8958C475.785 5.72002 476.242 5.63213 476.734 5.63213L502.758 5.63213C504.287 5.63213 505.579 5.91338 506.634 6.47588C507.689 7.0208 508.541 7.71514 509.192 8.55888C509.86 9.38508 510.334 10.2815 510.616 11.2483C510.914 12.2151 511.064 13.1203 511.064 13.9641L511.065 18.3408Z" fill="#889e37" fill-rule="nonzero" opacity="1" stroke="none" vectornator:layerName="path"/>
<path d="M555.835 27.9908L534.185 27.9908L534.185 21.0826L555.832 21.0826L555.835 27.9908ZM558.92 43.4418L534.188 43.4418C533.239 43.4418 532.202 43.2748 531.077 42.9408C529.952 42.6068 528.906 42.0619 527.939 41.306C526.99 40.5325 526.19 39.5394 525.54 38.3265C524.907 37.096 524.59 35.5931 524.59 33.8177L524.59 9.08569C524.59 8.61108 524.678 8.16285 524.854 7.74099C525.03 7.31911 525.267 6.94998 525.566 6.63359C525.882 6.31718 526.251 6.07108 526.673 5.8953C527.095 5.71952 527.552 5.63163 528.044 5.63163L558.92 5.63163L558.92 12.4871L531.445 12.4871L531.445 33.8181C531.445 34.7146 531.683 35.4001 532.157 35.8747C532.632 36.3493 533.326 36.5866 534.24 36.5866L558.92 36.5866L558.92 43.4418Z" fill="#889e37" fill-rule="nonzero" opacity="1" stroke="none" vectornator:layerName="path"/>
<path d="M608.545 32.3108C608.545 33.6643 608.369 34.886 608.018 35.9758C607.684 37.048 607.235 37.9972 606.673 38.8234C606.11 39.6496 605.451 40.3527 604.695 40.9328C603.94 41.5128 603.157 41.9874 602.349 42.3566C601.54 42.7257 600.714 42.9982 599.87 43.1739C599.044 43.3497 598.262 43.4376 597.524 43.4376L571.074 43.4376L571.074 36.5821L597.52 36.5821C598.838 36.5821 599.857 36.1954 600.578 35.4219C601.316 34.6485 601.686 33.6114 601.686 32.3106C601.686 31.6778 601.589 31.0977 601.395 30.5704C601.202 30.0431 600.921 29.586 600.552 29.1993C600.2 28.8126 599.761 28.5138 599.233 28.3028C598.724 28.0919 598.152 27.9864 597.519 27.9864L581.751 27.9864C580.644 27.9864 579.449 27.7931 578.166 27.4063C576.882 27.002 575.687 26.3604 574.58 25.4815C573.49 24.6026 572.576 23.4512 571.837 22.0274C571.117 20.6036 570.756 18.8634 570.756 16.8067C570.756 14.7501 571.117 13.0186 571.837 11.6124C572.576 10.1886 573.49 9.03728 574.58 8.15835C575.687 7.26188 576.882 6.62028 578.166 6.23355C579.449 5.82925 580.644 5.6271 581.751 5.6271L605.086 5.6271L605.086 12.4826L581.751 12.4826C580.451 12.4826 579.431 12.8781 578.693 13.6691C577.972 14.4601 577.612 15.506 577.612 16.8068C577.612 18.1251 577.972 19.171 578.693 19.9445C579.431 20.7004 580.451 21.0783 581.751 21.0783L597.572 21.0783C598.311 21.0959 599.093 21.2014 599.919 21.3947C600.745 21.5705 601.563 21.8517 602.371 22.2385C603.197 22.6252 603.98 23.1174 604.718 23.7151C605.456 24.2951 606.107 24.9983 606.669 25.8245C607.249 26.6507 607.706 27.5999 608.04 28.6721C608.374 29.7443 608.541 30.9572 608.541 32.3108L608.545 32.3108Z" fill="#889e37" fill-rule="nonzero" opacity="1" stroke="none" vectornator:layerName="path"/>
<path d="M627.945 43.4408L621.089 43.4408L621.089 5.62977L627.945 5.62977L627.945 43.4408Z" fill="#889e37" fill-rule="nonzero" opacity="1" stroke="none" vectornator:layerName="path"/>
<path d="M675.115 7.68077C675.379 8.29601 675.458 8.94641 675.352 9.63197C675.247 10.3 674.966 10.8713 674.509 11.3459L651.885 36.5789L675.062 36.5789L675.062 43.4344L644.16 43.4344C643.492 43.4344 642.868 43.2498 642.288 42.8807C641.726 42.4939 641.304 41.993 641.023 41.3778C640.724 40.7625 640.627 40.1209 640.733 39.453C640.856 38.785 641.137 38.2049 641.577 37.7128L664.253 12.4798L641.023 12.4798L641.023 5.62426L671.978 5.62426C672.646 5.62426 673.261 5.81762 673.823 6.20434C674.403 6.57348 674.834 7.06568 675.115 7.68094L675.115 7.68077Z" fill="#889e37" fill-rule="nonzero" opacity="1" stroke="none" vectornator:layerName="path"/>
<path d="M719.095 27.9908L697.448 27.9908L697.448 21.0826L719.095 21.0826L719.095 27.9908ZM722.18 43.4418L697.448 43.4418C696.499 43.4418 695.462 43.2748 694.337 42.9408C693.212 42.6068 692.166 42.0619 691.199 41.306C690.25 40.5325 689.45 39.5394 688.8 38.3265C688.167 37.096 687.85 35.5931 687.85 33.8177L687.85 9.08569C687.85 8.61108 687.938 8.16285 688.114 7.74099C688.29 7.31911 688.527 6.94998 688.826 6.63359C689.142 6.31718 689.511 6.07108 689.933 5.8953C690.355 5.71952 690.812 5.63163 691.304 5.63163L722.18 5.63163L722.18 12.4871L694.705 12.4871L694.705 33.8181C694.705 34.7146 694.943 35.4001 695.417 35.8747C695.892 36.3493 696.586 36.5866 697.5 36.5866L722.18 36.5866L722.18 43.4418Z" fill="#889e37" fill-rule="nonzero" opacity="1" stroke="none" vectornator:layerName="path"/>
<path d="M773.365 18.3408C773.365 19.9052 773.172 21.3027 772.785 22.5332C772.398 23.7636 771.871 24.8535 771.203 25.8027C770.552 26.7343 769.797 27.5341 768.935 28.2021C768.074 28.8701 767.169 29.4238 766.219 29.8632C765.288 30.285 764.339 30.5927 763.372 30.786C762.423 30.9794 761.526 31.0761 760.682 31.0761L774.999 43.4421L764.389 43.4421L750.099 31.0621L745.169 31.0621L745.169 24.2066L760.673 24.2066C761.534 24.1362 762.316 23.9605 763.019 23.6792C763.74 23.3804 764.355 22.9849 764.865 22.4927C765.392 22.0005 765.797 21.4117 766.078 20.7261C766.359 20.023 766.5 19.2232 766.5 18.3267L766.5 14.0025C766.5 13.6158 766.447 13.3258 766.342 13.1324C766.254 12.9215 766.131 12.7721 765.973 12.6842C765.832 12.5787 765.674 12.5172 765.498 12.4996C765.34 12.482 765.19 12.4732 765.05 12.4732L742.427 12.4732L742.427 43.4282L735.571 43.4282L735.571 9.07219C735.571 8.59758 735.659 8.14935 735.835 7.72749C736.011 7.30561 736.248 6.93648 736.547 6.62009C736.863 6.30368 737.232 6.05758 737.654 5.8818C738.076 5.70602 738.533 5.61813 739.025 5.61813L765.049 5.61813C766.579 5.61813 767.871 5.89938 768.925 6.46188C769.98 7.0068 770.832 7.70114 771.483 8.54488C772.151 9.37108 772.625 10.2675 772.907 11.2343C773.205 12.2011 773.355 13.1063 773.355 13.9501L773.365 18.3408Z" fill="#889e37" fill-rule="nonzero" opacity="1" stroke="none" vectornator:layerName="path"/>
<path d="M54.045 0.000767877C34.7569 0.00376788 18.7639 0.0203679 18.5059 0.0378679C18.2487 0.0549679 17.8262 0.110868 17.5677 0.162138C17.3096 0.213038 16.9013 0.318508 16.6603 0.396908C16.4192 0.475308 16.0068 0.642938 15.7429 0.769288C15.4793 0.896058 15.0569 1.13708 14.8046 1.30514C14.5523 1.47319 14.1845 1.75216 13.9869 1.9248C13.7897 2.09744 13.5103 2.37016 13.3664 2.5307C13.2225 2.69125 12.9982 2.96522 12.8681 3.13911C12.7376 3.31341 12.5391 3.61031 12.4265 3.79963C12.3139 3.98853 12.1317 4.34548 12.0212 4.59238C11.9111 4.83924 11.7576 5.26166 11.6805 5.53063C11.6034 5.79959 11.5053 6.19783 11.4628 6.41593L11.3852 6.81208L11.3744 26.2131L11.3636 45.6141L26.5326 45.6145C36.5616 45.6149 41.8706 45.6295 42.2016 45.6579C42.4768 45.6813 42.8692 45.7292 43.0735 45.7642C43.2779 45.7988 43.6532 45.8814 43.9075 45.9469C44.1619 46.0128 44.5576 46.1337 44.787 46.2163C45.0163 46.2989 45.4479 46.4861 45.7461 46.6328C46.0443 46.7796 46.4512 47.0023 46.6506 47.1282C46.8499 47.2538 47.1969 47.4948 47.422 47.6633C47.6472 47.8321 48.0847 48.2233 48.394 48.5331C48.7039 48.8425 49.095 49.28 49.2639 49.5051C49.4324 49.7303 49.6734 50.0772 49.7993 50.2766C49.9253 50.4759 50.1467 50.8829 50.2918 51.1811C50.4365 51.4792 50.6229 51.9062 50.7055 52.1302C50.7885 52.3541 50.9102 52.7482 50.9761 53.0059C51.0424 53.2636 51.1262 53.6526 51.1625 53.8707C51.1988 54.0884 51.2476 54.4824 51.2705 54.7464C51.2976 55.0558 51.3126 60.6028 51.3126 70.3944L51.313 85.5624L70.475 85.5624C83.637 85.5624 89.764 85.5486 90.043 85.5182C90.2657 85.4941 90.6635 85.4265 90.9267 85.3681C91.1902 85.3097 91.5805 85.1988 91.794 85.1212C92.0076 85.0441 92.3361 84.9085 92.5246 84.8201C92.7127 84.7317 93.0434 84.5495 93.2598 84.4157C93.4762 84.2818 93.8344 84.0262 94.0563 83.8477C94.2777 83.6692 94.6034 83.3702 94.7798 83.183C94.9558 82.9958 95.1814 82.7364 95.2806 82.6075C95.3803 82.4783 95.5679 82.2085 95.6985 82.0083C95.829 81.8082 96.0371 81.4329 96.1609 81.1743C96.2847 80.9158 96.4449 80.5284 96.5162 80.3136C96.5879 80.0989 96.6922 79.7027 96.748 79.4333C96.8035 79.164 96.8677 78.6736 96.8902 78.3437C96.9165 77.9584 96.9311 65.2317 96.9311 42.7777C96.9311 20.9627 96.9161 7.59174 96.891 7.22874C96.8693 6.90765 96.8122 6.44769 96.7643 6.20714C96.7164 5.96611 96.6029 5.5462 96.5124 5.27347C96.4215 5.00075 96.2559 4.58792 96.1438 4.35607C96.0316 4.12421 95.8231 3.75642 95.6801 3.53917C95.537 3.32149 95.3369 3.04002 95.2351 2.91367C95.1334 2.7869 94.8686 2.49875 94.6463 2.27315C94.4245 2.04755 94.0738 1.73605 93.8674 1.58093C93.661 1.42622 93.3265 1.20021 93.1243 1.07887C92.922 0.957938 92.5751 0.779048 92.3528 0.681458C92.131 0.583858 91.7686 0.446688 91.548 0.375798C91.3274 0.305298 90.9575 0.209418 90.7265 0.162298C90.4955 0.115198 90.0376 0.0580479 89.7099 0.0359479C89.3284 0.00964788 76.4839-0.00285212 54.0439 0.000547877L54.045 0.000767877ZM69.255 16.5588L79.524 16.5696L79.8834 16.6984C80.0811 16.7689 80.3742 16.9144 80.5352 17.0216C80.6961 17.1283 80.938 17.3348 81.0727 17.4799C81.207 17.625 81.3792 17.8485 81.4555 17.9769C81.5318 18.105 81.639 18.3389 81.694 18.4969C81.749 18.655 81.8133 18.9523 81.8366 19.1575C81.8646 19.4018 81.8796 22.9559 81.8796 29.4655L81.8801 39.4007L76.0004 39.4007L76.0004 26.5357L67.5666 34.9695L59.1328 43.4033L57.0791 41.3496C55.9495 40.22 55.0254 39.2767 55.0254 39.2542C55.0254 39.2313 58.8113 35.4266 63.4382 30.7994L71.8532 22.3866L58.9732 22.3866L58.9732 16.5466L69.255 16.5588ZM22.685 51.4988C8.64595 51.5018 4.89295 51.5138 4.62895 51.5555C4.44547 51.5843 4.14606 51.6502 3.96383 51.7018C3.78161 51.7531 3.46719 51.867 3.26536 51.9545C3.06354 52.0421 2.7095 52.2377 2.47846 52.389C2.24786 52.54 1.88382 52.8331 1.66988 53.0404C1.45596 53.2472 1.16448 53.58 1.02187 53.7797C0.87967 53.9791 0.67993 54.3077 0.57818 54.5095C0.47644 54.7117 0.33883 55.0399 0.27252 55.2392C0.20582 55.439 0.1174 55.7709 0.0757 55.9773L0 56.3598L0 92.0978L0.0788 92.4731C0.1222 92.6795 0.22225 93.0348 0.30106 93.2625C0.37986 93.4906 0.49788 93.7825 0.56294 93.9118C0.62844 94.041 0.79938 94.3238 0.94324 94.5402C1.09086 94.7616 1.37901 95.1073 1.60335 95.3317C1.8277 95.556 2.17339 95.8441 2.39483 95.9918C2.61125 96.1356 2.89273 96.3062 3.02033 96.3704C3.14794 96.435 3.41773 96.546 3.61956 96.6173C3.82138 96.6882 4.10286 96.7732 4.24506 96.8062C4.38726 96.8391 4.69125 96.8871 4.9206 96.9125C5.22459 96.9467 10.1302 96.9558 22.9976 96.9462L40.6576 96.9333L41.0637 96.8395C41.2873 96.7878 41.6063 96.6969 41.7726 96.6368C41.939 96.5772 42.2351 96.4479 42.4298 96.3504C42.625 96.2524 42.9478 96.0555 43.1471 95.9133C43.3468 95.7707 43.6792 95.4797 43.886 95.2662C44.0928 95.0522 44.3756 94.7045 44.5144 94.4931C44.6533 94.2812 44.8301 93.9747 44.9072 93.8121C44.9839 93.6491 45.1066 93.3296 45.1791 93.102C45.2517 92.8747 45.3384 92.5086 45.3714 92.2888C45.4235 91.9452 45.4319 89.4115 45.4319 74.2088C45.4319 58.8818 45.4239 56.4778 45.371 56.1518C45.3372 55.9446 45.263 55.613 45.2054 55.4146C45.1479 55.2165 45.0274 54.895 44.9373 54.7002C44.8472 54.5055 44.685 54.2086 44.5762 54.0405C44.4677 53.8721 44.2571 53.5885 44.1083 53.4096C43.9594 53.2311 43.7134 52.9793 43.5612 52.85C43.4094 52.7207 43.1296 52.5135 42.9403 52.3901C42.751 52.2662 42.4394 52.0927 42.248 52.0043C42.0571 51.9159 41.7426 51.7958 41.55 51.7375C41.3573 51.6792 41.0217 51.6023 40.8036 51.5673C40.4525 51.511 38.3875 51.5043 22.6856 51.5077L22.685 51.4988Z" fill="#985d3b" fill-rule="nonzero" opacity="1" stroke="none" vectornator:layerName="path"/>
</g>
</svg>