<?xml version="1.0" encoding="UTF-8" standalone="no"?>
<svg
   xmlns:dc="http://purl.org/dc/elements/1.1/"
   xmlns:cc="http://creativecommons.org/ns#"
   xmlns:rdf="http://www.w3.org/1999/02/22-rdf-syntax-ns#"
   xmlns:svg="http://www.w3.org/2000/svg"
   xmlns="http://www.w3.org/2000/svg"
   id="svg66"
   xml:space="preserve"
   viewBox="0 0 1024 768"
   y="0px"
   x="0px"
   version="1.1"><metadata
     id="metadata72"><rdf:RDF><cc:Work
         rdf:about=""><dc:format>image/svg+xml</dc:format><dc:type
           rdf:resource="http://purl.org/dc/dcmitype/StillImage" /></cc:Work></rdf:RDF></metadata><defs
     id="defs70" /><g
     transform="translate(-13.855,-3.8374)"
     id="logo-group"><path
       stroke-miterlimit="2"
       d="m 260.9,403.12 v 17.203 h 2.016 v -5.8598 l 10.618,-11.343 h -2.688 l -7.9296,8.5478 v -8.5478 z m 4.2202,9.0317 6.6662,8.1715 h 2.5536 l -6.6931,-8.1715 z"
       style="font-variant-ligatures:none;fill:#985d3b;stroke-width:0;stroke-miterlimit:2"
       id="path197338" /><path
       stroke-miterlimit="2"
       d="m 280,420.46 c 3.1181,0 5.3222,-1.7203 6.0749,-4.704 h -2.016 c -0.64512,1.7472 -1.6934,2.6342 -3.0912,2.6342 h -1.6934 c -2.231,0 -3.3869,-1.1558 -3.4944,-4.5427 h 10.51 v -0.5376 c 0,-4.6502 -2.4192,-7.0963 -6.2899,-7.0963 -3.8707,0 -6.2899,2.4461 -6.2899,7.0963 0,4.4621 2.2579,7.1501 6.2899,7.1501 z m -4.1664,-8.4941 c 0.2688,-2.7686 1.3978,-3.7363 3.4406,-3.7363 h 1.4515 c 2.0429,0 3.1718,0.96768 3.4406,3.7363 z"
       style="font-variant-ligatures:none;fill:#985d3b;stroke-width:0;stroke-miterlimit:2"
       id="path197340" /><path
       stroke-miterlimit="2"
       d="m 294.59,420.46 c 3.1181,0 5.3222,-1.7203 6.0749,-4.704 h -2.016 c -0.64512,1.7472 -1.6934,2.6342 -3.0912,2.6342 h -1.6934 c -2.231,0 -3.3869,-1.1558 -3.4944,-4.5427 h 10.51 v -0.5376 c 0,-4.6502 -2.4192,-7.0963 -6.2899,-7.0963 -3.8707,0 -6.2899,2.4461 -6.2899,7.0963 0,4.4621 2.2579,7.1501 6.2899,7.1501 z m -4.1664,-8.4941 c 0.2688,-2.7686 1.3978,-3.7363 3.4406,-3.7363 h 1.4515 c 2.0429,0 3.1718,0.96768 3.4406,3.7363 z"
       style="font-variant-ligatures:none;fill:#985d3b;stroke-width:0;stroke-miterlimit:2"
       id="path197342" /><path
       stroke-miterlimit="2"
       d="m 309.11,420.49 c 3.9245,0 6.5856,-2.6611 6.5856,-7.2038 0,-4.4352 -2.6611,-7.0694 -6.5856,-7.0694 -1.7741,0 -3.1718,0.64512 -4.1933,1.7203 v -1.5859 h -2.016 v 17.203 h 2.016 v -4.8115 c 1.0214,1.1021 2.4192,1.7472 4.1933,1.7472 z m -4.1933,-6.1018 v -2.2042 c 0,-2.4192 1.1827,-3.9514 3.36,-3.9514 h 1.7472 c 2.1773,0 3.6557,1.8816 3.6557,5.0534 0,3.1718 -1.4784,5.0534 -3.6557,5.0534 h -1.7472 c -2.1773,0 -3.36,-1.5322 -3.36,-3.9514 z"
       style="font-variant-ligatures:none;fill:#985d3b;stroke-width:0;stroke-miterlimit:2"
       id="path197344" /><path
       stroke-miterlimit="2"
       d="m 328.24,420.46 h 1.0214 c 2.4461,0 5.2954,-0.18816 5.2954,-4.2739 0,-2.7418 -2.9837,-3.4675 -5.6448,-4.2202 -2.1235,-0.69888 -3.817,-0.83328 -3.817,-2.3386 0,-1.2365 1.0214,-1.3978 2.9837,-1.3978 h 0.91392 c 2.3654,0 3.3331,0.24192 3.3331,2.3654 h 2.016 c 0,-3.4675 -2.7686,-4.3814 -5.6179,-4.3814 -3.1718,0 -5.6179,0.5376 -5.6448,3.5482 0,2.9837 2.8762,3.4138 5.4566,4.2202 2.1235,0.61824 4.0051,1.129 4.0051,2.5267 0,1.8816 -0.9408,1.9354 -3.2794,1.9354 h -1.0214 c -2.231,0 -3.1718,-0.72576 -3.1718,-2.688 h -2.016 c 0,3.4138 2.0429,4.704 5.1878,4.704 z"
       style="font-variant-ligatures:none;fill:#985d3b;stroke-width:0;stroke-miterlimit:2"
       id="path197346" /><path
       stroke-miterlimit="2"
       d="m 343.19,420.49 c 1.7741,0 3.1718,-0.64512 4.1933,-1.7472 v 1.5859 h 2.016 v -13.978 h -2.016 v 1.5859 c -1.0214,-1.0752 -2.4192,-1.7203 -4.1933,-1.7203 -3.9245,0 -6.5856,2.6342 -6.5856,7.0694 0,4.5427 2.6611,7.2038 6.5856,7.2038 z m -4.5696,-7.2038 c 0,-3.1718 1.4784,-5.0534 3.6557,-5.0534 h 1.7472 c 2.1773,0 3.36,1.5322 3.36,3.9514 v 2.2042 c 0,2.4192 -1.1827,3.9514 -3.36,3.9514 h -1.7472 c -2.1773,0 -3.6557,-1.8816 -3.6557,-5.0534 z"
       style="font-variant-ligatures:none;fill:#985d3b;stroke-width:0;stroke-miterlimit:2"
       id="path197348" /><path
       stroke-miterlimit="2"
       d="m 353.42,407.24 v -0.88704 h -2.016 v 13.978 h 2.016 v -9.0048 c 0,-1.9085 0.9408,-3.0912 2.6342,-3.0912 h 1.2365 c 1.6934,0 2.3117,1.1827 2.3117,3.6826 v 8.4134 h 2.016 v -9.0048 c 0,-1.9085 0.9408,-3.0912 2.6342,-3.0912 h 1.2365 c 1.6934,0 2.3117,1.1827 2.3117,3.6826 v 8.4134 h 2.016 v -7.7952 c 0,-4.1395 -0.4032,-6.3168 -4.6502,-6.3168 -2.0966,0 -3.3869,0.61824 -4.1126,1.9891 -0.61824,-1.2634 -1.8816,-1.9891 -4.3546,-1.9891 -1.5322,0 -2.5805,0.32256 -3.2794,1.0214 z"
       style="font-variant-ligatures:none;fill:#985d3b;stroke-width:0;stroke-miterlimit:2"
       id="path197350" /><path
       stroke-miterlimit="2"
       d="m 378.12,420.46 c 3.1181,0 5.3222,-1.7203 6.0749,-4.704 h -2.016 c -0.64512,1.7472 -1.6934,2.6342 -3.0912,2.6342 h -1.6934 c -2.231,0 -3.3869,-1.1558 -3.4944,-4.5427 h 10.51 v -0.5376 c 0,-4.6502 -2.4192,-7.0963 -6.2899,-7.0963 -3.8707,0 -6.2899,2.4461 -6.2899,7.0963 0,4.4621 2.2579,7.1501 6.2899,7.1501 z m -4.1664,-8.4941 c 0.2688,-2.7686 1.3978,-3.7363 3.4406,-3.7363 h 1.4515 c 2.0429,0 3.1718,0.96768 3.4406,3.7363 z"
       style="font-variant-ligatures:none;fill:#985d3b;stroke-width:0;stroke-miterlimit:2"
       id="path197352" /><path
       stroke-miterlimit="2"
       d="m 398.37,420.49 c 1.7741,0 3.1718,-0.64512 4.1933,-1.7472 v 1.5859 h 2.016 v -13.978 h -2.016 v 1.5859 c -1.0214,-1.0752 -2.4192,-1.7203 -4.1933,-1.7203 -3.9245,0 -6.5856,2.6342 -6.5856,7.0694 0,4.5427 2.6611,7.2038 6.5856,7.2038 z m -4.5696,-7.2038 c 0,-3.1718 1.4784,-5.0534 3.6557,-5.0534 h 1.7472 c 2.1773,0 3.36,1.5322 3.36,3.9514 v 2.2042 c 0,2.4192 -1.1827,3.9514 -3.36,3.9514 h -1.7472 c -2.1773,0 -3.6557,-1.8816 -3.6557,-5.0534 z"
       style="font-variant-ligatures:none;fill:#985d3b;stroke-width:0;stroke-miterlimit:2"
       id="path197354" /><path
       stroke-miterlimit="2"
       d="m 408.6,407.56 v -1.2096 h -2.016 v 13.978 h 2.016 v -9.0048 c 0,-1.9085 0.9408,-3.0912 2.6342,-3.0912 h 2.4461 c 1.6934,0 2.5805,1.1827 2.5805,3.6826 v 8.4134 h 2.016 v -7.7952 c 0,-4.1395 -1.6128,-6.3168 -5.8598,-6.3168 -1.7472,0 -2.9837,0.43008 -3.817,1.344 z"
       style="font-variant-ligatures:none;fill:#985d3b;stroke-width:0;stroke-miterlimit:2"
       id="path197356" /><path
       stroke-miterlimit="2"
       d="m 426.87,420.49 c 1.7741,0 3.1718,-0.64512 4.1933,-1.7472 v 1.5859 h 2.016 v -17.203 h -2.016 v 4.8115 c -1.0214,-1.0752 -2.4192,-1.7203 -4.1933,-1.7203 -3.9245,0 -6.5856,2.6342 -6.5856,7.0694 0,4.5427 2.6611,7.2038 6.5856,7.2038 z m -4.5696,-7.2038 c 0,-3.1718 1.4784,-5.0534 3.6557,-5.0534 h 1.7472 c 2.1773,0 3.36,1.5322 3.36,3.9514 v 2.2042 c 0,2.4192 -1.1827,3.9514 -3.36,3.9514 h -1.7472 c -2.1773,0 -3.6557,-1.8816 -3.6557,-5.0534 z"
       style="font-variant-ligatures:none;fill:#985d3b;stroke-width:0;stroke-miterlimit:2"
       id="path197358" /><path
       stroke-miterlimit="2"
       d="m 446.74,420.46 c 3.1181,0 5.3222,-1.7203 6.0749,-4.704 h -2.016 c -0.64512,1.7472 -1.6934,2.6342 -3.0912,2.6342 h -1.7472 c -2.3386,0 -3.4944,-1.2902 -3.4944,-5.0803 0,-3.7901 1.1558,-5.0803 3.4944,-5.0803 h 1.801 c 1.3978,0 2.3386,0.83328 2.9568,2.4192 h 2.016 c -0.8064,-2.9837 -3.0374,-4.4352 -5.9942,-4.4352 -3.8707,0 -6.2899,2.4461 -6.2899,7.0963 0,4.4621 2.2579,7.1501 6.2899,7.1501 z"
       style="font-variant-ligatures:none;fill:#985d3b;stroke-width:0;stroke-miterlimit:2"
       id="path197360" /><path
       stroke-miterlimit="2"
       d="m 456.85,407.56 v -1.2096 h -2.016 v 13.978 h 2.016 v -9.0048 c 0,-1.9085 0.9408,-3.0912 2.6342,-3.0912 h 1.1827 v -2.016 c -1.7472,0 -2.9837,0.43008 -3.817,1.344 z"
       style="font-variant-ligatures:none;fill:#985d3b;stroke-width:0;stroke-miterlimit:2"
       id="path197362" /><path
       stroke-miterlimit="2"
       d="m 468.04,420.46 c 4.1664,0 6.72,-2.5536 6.72,-7.1501 0,-4.4083 -2.3654,-7.0963 -6.72,-7.0963 -4.1664,0 -6.6931,2.4998 -6.6931,7.0963 0,4.5158 2.2848,7.1501 6.6931,7.1501 z m -4.6771,-7.177 c 0,-3.1718 1.5053,-5.0534 3.6557,-5.0534 h 2.0698 c 2.1504,0 3.6557,1.8816 3.6557,5.0534 0,3.1718 -1.5053,5.0534 -3.6557,5.0534 h -2.0698 c -2.1504,0 -3.6557,-1.8816 -3.6557,-5.0534 z"
       style="font-variant-ligatures:none;fill:#985d3b;stroke-width:0;stroke-miterlimit:2"
       id="path197364" /><path
       stroke-miterlimit="2"
       d="m 481.44,420.46 h 1.0214 c 2.4461,0 5.2954,-0.18816 5.2954,-4.2739 0,-2.7418 -2.9837,-3.4675 -5.6448,-4.2202 -2.1235,-0.69888 -3.817,-0.83328 -3.817,-2.3386 0,-1.2365 1.0214,-1.3978 2.9837,-1.3978 h 0.91392 c 2.3654,0 3.3331,0.24192 3.3331,2.3654 h 2.016 c 0,-3.4675 -2.7686,-4.3814 -5.6179,-4.3814 -3.1718,0 -5.6179,0.5376 -5.6448,3.5482 0,2.9837 2.8762,3.4138 5.4566,4.2202 2.1235,0.61824 4.0051,1.129 4.0051,2.5267 0,1.8816 -0.9408,1.9354 -3.2794,1.9354 h -1.0214 c -2.231,0 -3.1718,-0.72576 -3.1718,-2.688 h -2.016 c 0,3.4138 2.0429,4.704 5.1878,4.704 z"
       style="font-variant-ligatures:none;fill:#985d3b;stroke-width:0;stroke-miterlimit:2"
       id="path197366" /><path
       stroke-miterlimit="2"
       d="m 494.98,420.46 h 1.0214 c 2.4461,0 5.2954,-0.18816 5.2954,-4.2739 0,-2.7418 -2.9837,-3.4675 -5.6448,-4.2202 -2.1235,-0.69888 -3.817,-0.83328 -3.817,-2.3386 0,-1.2365 1.0214,-1.3978 2.9837,-1.3978 h 0.91392 c 2.3654,0 3.3331,0.24192 3.3331,2.3654 h 2.016 c 0,-3.4675 -2.7686,-4.3814 -5.6179,-4.3814 -3.1718,0 -5.6179,0.5376 -5.6448,3.5482 0,2.9837 2.8762,3.4138 5.4566,4.2202 2.1235,0.61824 4.0051,1.129 4.0051,2.5267 0,1.8816 -0.9408,1.9354 -3.2794,1.9354 h -1.0214 c -2.231,0 -3.1718,-0.72576 -3.1718,-2.688 h -2.016 c 0,3.4138 2.0429,4.704 5.1878,4.704 z"
       style="font-variant-ligatures:none;fill:#985d3b;stroke-width:0;stroke-miterlimit:2"
       id="path197368" /><path
       stroke-miterlimit="2"
       d="m 515.28,420.49 c 1.7741,0 3.1718,-0.64512 4.1933,-1.7472 v 1.5859 h 2.016 v -17.203 h -2.016 v 4.8115 c -1.0214,-1.0752 -2.4192,-1.7203 -4.1933,-1.7203 -3.9245,0 -6.5856,2.6342 -6.5856,7.0694 0,4.5427 2.6611,7.2038 6.5856,7.2038 z m -4.5696,-7.2038 c 0,-3.1718 1.4784,-5.0534 3.6557,-5.0534 h 1.7472 c 2.1773,0 3.36,1.5322 3.36,3.9514 v 2.2042 c 0,2.4192 -1.1827,3.9514 -3.36,3.9514 h -1.7472 c -2.1773,0 -3.6557,-1.8816 -3.6557,-5.0534 z"
       style="font-variant-ligatures:none;fill:#985d3b;stroke-width:0;stroke-miterlimit:2"
       id="path197370" /><path
       stroke-miterlimit="2"
       d="m 530.2,420.46 c 4.1664,0 6.72,-2.5536 6.72,-7.1501 0,-4.4083 -2.3654,-7.0963 -6.72,-7.0963 -4.1664,0 -6.6931,2.4998 -6.6931,7.0963 0,4.5158 2.2848,7.1501 6.6931,7.1501 z m -4.6771,-7.177 c 0,-3.1718 1.5053,-5.0534 3.6557,-5.0534 h 2.0698 c 2.1504,0 3.6557,1.8816 3.6557,5.0534 0,3.1718 -1.5053,5.0534 -3.6557,5.0534 h -2.0698 c -2.1504,0 -3.6557,-1.8816 -3.6557,-5.0534 z"
       style="font-variant-ligatures:none;fill:#985d3b;stroke-width:0;stroke-miterlimit:2"
       id="path197372" /><path
       stroke-miterlimit="2"
       d="m 540.95,407.24 v -0.88704 h -2.016 v 13.978 h 2.016 v -9.0048 c 0,-1.9085 0.9408,-3.0912 2.6342,-3.0912 h 1.2365 c 1.6934,0 2.3117,1.1827 2.3117,3.6826 v 8.4134 h 2.016 v -9.0048 c 0,-1.9085 0.9408,-3.0912 2.6342,-3.0912 h 1.2365 c 1.6934,0 2.3117,1.1827 2.3117,3.6826 v 8.4134 h 2.016 v -7.7952 c 0,-4.1395 -0.4032,-6.3168 -4.6502,-6.3168 -2.0966,0 -3.3869,0.61824 -4.1126,1.9891 -0.61824,-1.2634 -1.8816,-1.9891 -4.3546,-1.9891 -1.5322,0 -2.5805,0.32256 -3.2794,1.0214 z"
       style="font-variant-ligatures:none;fill:#985d3b;stroke-width:0;stroke-miterlimit:2"
       id="path197374" /><path
       stroke-miterlimit="2"
       d="m 565.95,420.49 c 1.7741,0 3.1718,-0.64512 4.1933,-1.7472 v 1.5859 h 2.016 v -13.978 h -2.016 v 1.5859 c -1.0214,-1.0752 -2.4192,-1.7203 -4.1933,-1.7203 -3.9245,0 -6.5856,2.6342 -6.5856,7.0694 0,4.5427 2.6611,7.2038 6.5856,7.2038 z m -4.5696,-7.2038 c 0,-3.1718 1.4784,-5.0534 3.6557,-5.0534 h 1.7472 c 2.1773,0 3.36,1.5322 3.36,3.9514 v 2.2042 c 0,2.4192 -1.1827,3.9514 -3.36,3.9514 h -1.7472 c -2.1773,0 -3.6557,-1.8816 -3.6557,-5.0534 z"
       style="font-variant-ligatures:none;fill:#985d3b;stroke-width:0;stroke-miterlimit:2"
       id="path197376" /><path
       stroke-miterlimit="2"
       d="m 576.18,420.33 v -13.978 h -2.016 v 13.978 z m -2.016,-15.187 h 2.016 v -2.016 h -2.016 z"
       style="font-variant-ligatures:none;fill:#985d3b;stroke-width:0;stroke-miterlimit:2"
       id="path197378" /><path
       stroke-miterlimit="2"
       d="m 580.22,407.56 v -1.2096 h -2.016 v 13.978 h 2.016 v -9.0048 c 0,-1.9085 0.9408,-3.0912 2.6342,-3.0912 h 2.4461 c 1.6934,0 2.5805,1.1827 2.5805,3.6826 v 8.4134 h 2.016 v -7.7952 c 0,-4.1395 -1.6128,-6.3168 -5.8598,-6.3168 -1.7472,0 -2.9837,0.43008 -3.817,1.344 z"
       style="font-variant-ligatures:none;fill:#985d3b;stroke-width:0;stroke-miterlimit:2"
       id="path197380" /><path
       stroke-miterlimit="2"
       d="m 599.28,420.33 v -13.978 h -2.016 v 13.978 z m -2.016,-15.187 h 2.016 v -2.016 h -2.016 z"
       style="font-variant-ligatures:none;fill:#985d3b;stroke-width:0;stroke-miterlimit:2"
       id="path197382" /><path
       stroke-miterlimit="2"
       d="m 601.31,406.43 v 13.924 h 2.016 v -10.618 h 3.145 v -2.016 h -3.145 v -1.2902 c 0,-1.0483 0.21504,-1.2902 1.2634,-1.2902 h 1.8816 v -2.016 h -1.8816 c -2.0429,0 -3.2794,1.2634 -3.2794,3.3062 z"
       style="font-variant-ligatures:none;fill:#985d3b;stroke-width:0;stroke-miterlimit:2"
       id="path197384" /><path
       stroke-miterlimit="2"
       d="m 610.52,407.56 v -1.2096 h -2.016 v 13.978 h 2.016 v -9.0048 c 0,-1.9085 0.9408,-3.0912 2.6342,-3.0912 h 1.1827 v -2.016 c -1.7472,0 -2.9837,0.43008 -3.817,1.344 z"
       style="font-variant-ligatures:none;fill:#985d3b;stroke-width:0;stroke-miterlimit:2"
       id="path197386" /><path
       stroke-miterlimit="2"
       d="m 621.6,420.49 c 1.7741,0 3.1718,-0.64512 4.1933,-1.7472 v 1.5859 h 2.016 v -13.978 h -2.016 v 1.5859 c -1.0214,-1.0752 -2.4192,-1.7203 -4.1933,-1.7203 -3.9245,0 -6.5856,2.6342 -6.5856,7.0694 0,4.5427 2.6611,7.2038 6.5856,7.2038 z m -4.5696,-7.2038 c 0,-3.1718 1.4784,-5.0534 3.6557,-5.0534 h 1.7472 c 2.1773,0 3.36,1.5322 3.36,3.9514 v 2.2042 c 0,2.4192 -1.1827,3.9514 -3.36,3.9514 h -1.7472 c -2.1773,0 -3.6557,-1.8816 -3.6557,-5.0534 z"
       style="font-variant-ligatures:none;fill:#985d3b;stroke-width:0;stroke-miterlimit:2"
       id="path197388" /><path
       stroke-miterlimit="2"
       d="m 631.83,407.24 v -0.88704 h -2.016 v 13.978 h 2.016 v -9.0048 c 0,-1.9085 0.9408,-3.0912 2.6342,-3.0912 h 1.2365 c 1.6934,0 2.3117,1.1827 2.3117,3.6826 v 8.4134 h 2.016 v -9.0048 c 0,-1.9085 0.9408,-3.0912 2.6342,-3.0912 h 1.2365 c 1.6934,0 2.3117,1.1827 2.3117,3.6826 v 8.4134 h 2.016 v -7.7952 c 0,-4.1395 -0.4032,-6.3168 -4.6502,-6.3168 -2.0966,0 -3.3869,0.61824 -4.1126,1.9891 -0.61824,-1.2634 -1.8816,-1.9891 -4.3546,-1.9891 -1.5322,0 -2.5805,0.32256 -3.2794,1.0214 z"
       style="font-variant-ligatures:none;fill:#985d3b;stroke-width:0;stroke-miterlimit:2"
       id="path197390" /><path
       stroke-miterlimit="2"
       d="m 656.53,420.46 c 3.1181,0 5.3222,-1.7203 6.0749,-4.704 h -2.016 c -0.64512,1.7472 -1.6934,2.6342 -3.0912,2.6342 h -1.6934 c -2.231,0 -3.3869,-1.1558 -3.4944,-4.5427 h 10.51 v -0.5376 c 0,-4.6502 -2.4192,-7.0963 -6.2899,-7.0963 -3.8707,0 -6.2899,2.4461 -6.2899,7.0963 0,4.4621 2.2579,7.1501 6.2899,7.1501 z m -4.1664,-8.4941 c 0.2688,-2.7686 1.3978,-3.7363 3.4406,-3.7363 h 1.4515 c 2.0429,0 3.1718,0.96768 3.4406,3.7363 z"
       style="font-variant-ligatures:none;fill:#985d3b;stroke-width:0;stroke-miterlimit:2"
       id="path197392" /><path
       stroke-miterlimit="2"
       d="m 669.49,420.46 h 1.0214 c 2.4461,0 5.2954,-0.18816 5.2954,-4.2739 0,-2.7418 -2.9837,-3.4675 -5.6448,-4.2202 -2.1235,-0.69888 -3.817,-0.83328 -3.817,-2.3386 0,-1.2365 1.0214,-1.3978 2.9837,-1.3978 h 0.91392 c 2.3654,0 3.3331,0.24192 3.3331,2.3654 h 2.016 c 0,-3.4675 -2.7686,-4.3814 -5.6179,-4.3814 -3.1718,0 -5.6179,0.5376 -5.6448,3.5482 0,2.9837 2.8762,3.4138 5.4566,4.2202 2.1235,0.61824 4.0051,1.129 4.0051,2.5267 0,1.8816 -0.9408,1.9354 -3.2794,1.9354 h -1.0214 c -2.231,0 -3.1718,-0.72576 -3.1718,-2.688 h -2.016 c 0,3.4138 2.0429,4.704 5.1878,4.704 z"
       style="font-variant-ligatures:none;fill:#985d3b;stroke-width:0;stroke-miterlimit:2"
       id="path197394" /><path
       stroke-miterlimit="2"
       d="m 688.39,420.46 h 1.0214 c 2.4461,0 5.2954,-0.18816 5.2954,-4.2739 0,-2.7418 -2.9837,-3.4675 -5.6448,-4.2202 -2.1235,-0.69888 -3.817,-0.83328 -3.817,-2.3386 0,-1.2365 1.0214,-1.3978 2.9837,-1.3978 h 0.91392 c 2.3654,0 3.3331,0.24192 3.3331,2.3654 h 2.016 c 0,-3.4675 -2.7686,-4.3814 -5.6179,-4.3814 -3.1718,0 -5.6179,0.5376 -5.6448,3.5482 0,2.9837 2.8762,3.4138 5.4566,4.2202 2.1235,0.61824 4.0051,1.129 4.0051,2.5267 0,1.8816 -0.9408,1.9354 -3.2794,1.9354 h -1.0214 c -2.231,0 -3.1718,-0.72576 -3.1718,-2.688 h -2.016 c 0,3.4138 2.0429,4.704 5.1878,4.704 z"
       style="font-variant-ligatures:none;fill:#985d3b;stroke-width:0;stroke-miterlimit:2"
       id="path197396" /><path
       stroke-miterlimit="2"
       d="m 698.77,420.33 v -13.978 h -2.016 v 13.978 z m -2.016,-15.187 h 2.016 v -2.016 h -2.016 z"
       style="font-variant-ligatures:none;fill:#985d3b;stroke-width:0;stroke-miterlimit:2"
       id="path197398" /><path
       stroke-miterlimit="2"
       d="m 710.87,408.37 v -2.016 h -10.08 v 2.016 h 7.6608 l -7.607,9.9456 H 700.79 v 2.016 h 10.349 v -2.016 h -7.8758 z"
       style="font-variant-ligatures:none;fill:#985d3b;stroke-width:0;stroke-miterlimit:2"
       id="path197400" /><path
       stroke-miterlimit="2"
       d="m 718.95,420.46 c 3.1181,0 5.3222,-1.7203 6.0749,-4.704 h -2.016 c -0.64512,1.7472 -1.6934,2.6342 -3.0912,2.6342 h -1.6934 c -2.231,0 -3.3869,-1.1558 -3.4944,-4.5427 h 10.51 v -0.5376 c 0,-4.6502 -2.4192,-7.0963 -6.2899,-7.0963 -3.8707,0 -6.2899,2.4461 -6.2899,7.0963 0,4.4621 2.2579,7.1501 6.2899,7.1501 z m -4.1664,-8.4941 c 0.2688,-2.7686 1.3978,-3.7363 3.4406,-3.7363 h 1.4515 c 2.0429,0 3.1718,0.96768 3.4406,3.7363 z"
       style="font-variant-ligatures:none;fill:#985d3b;stroke-width:0;stroke-miterlimit:2"
       id="path197402" /><path
       stroke-miterlimit="2"
       d="m 733.84,420.49 c 1.7741,0 3.1718,-0.64512 4.1933,-1.7472 v 1.5859 h 2.016 v -17.203 h -2.016 v 4.8115 c -1.0214,-1.0752 -2.4192,-1.7203 -4.1933,-1.7203 -3.9245,0 -6.5856,2.6342 -6.5856,7.0694 0,4.5427 2.6611,7.2038 6.5856,7.2038 z m -4.5696,-7.2038 c 0,-3.1718 1.4784,-5.0534 3.6557,-5.0534 h 1.7472 c 2.1773,0 3.36,1.5322 3.36,3.9514 v 2.2042 c 0,2.4192 -1.1827,3.9514 -3.36,3.9514 h -1.7472 c -2.1773,0 -3.6557,-1.8816 -3.6557,-5.0534 z"
       style="font-variant-ligatures:none;fill:#985d3b;stroke-width:0;stroke-miterlimit:2"
       id="path197404" /><path
       stroke-miterlimit="2"
       d="m 750.69,420.33 h 1.8816 v -2.016 H 750.69 c -1.0483,0 -1.2634,-0.21504 -1.2634,-1.2634 v -8.6822 h 3.145 v -2.016 h -3.145 v -3.2256 h -2.016 v 13.924 c 0,2.0429 1.2365,3.2794 3.2794,3.2794 z"
       style="font-variant-ligatures:none;fill:#985d3b;stroke-width:0;stroke-miterlimit:2"
       id="path197406" /><path
       stroke-miterlimit="2"
       d="m 760.78,420.46 c 4.1664,0 6.72,-2.5536 6.72,-7.1501 0,-4.4083 -2.3654,-7.0963 -6.72,-7.0963 -4.1664,0 -6.6931,2.4998 -6.6931,7.0963 0,4.5158 2.2848,7.1501 6.6931,7.1501 z m -4.6771,-7.177 c 0,-3.1718 1.5053,-5.0534 3.6557,-5.0534 h 2.0698 c 2.1504,0 3.6557,1.8816 3.6557,5.0534 0,3.1718 -1.5053,5.0534 -3.6557,5.0534 h -2.0698 c -2.1504,0 -3.6557,-1.8816 -3.6557,-5.0534 z"
       style="font-variant-ligatures:none;fill:#985d3b;stroke-width:0;stroke-miterlimit:2"
       id="path197408" /><path
       stroke-miterlimit="2"
       d="m 778.15,420.33 h 1.8816 v -2.016 H 778.15 c -1.0483,0 -1.2634,-0.21504 -1.2634,-1.2634 v -8.6822 h 3.145 v -2.016 h -3.145 v -3.2256 h -2.016 v 13.924 c 0,2.0429 1.2365,3.2794 3.2794,3.2794 z"
       style="font-variant-ligatures:none;fill:#985d3b;stroke-width:0;stroke-miterlimit:2"
       id="path197410" /><path
       stroke-miterlimit="2"
       d="m 784.08,407.56 v -4.4352 h -2.016 v 17.203 h 2.016 v -9.0048 c 0,-1.9085 0.9408,-3.0912 2.6342,-3.0912 h 2.4461 c 1.6934,0 2.5805,1.1827 2.5805,3.6826 v 8.4134 h 2.016 v -7.7952 c 0,-4.1395 -1.6128,-6.3168 -5.8598,-6.3168 -1.7472,0 -2.9837,0.43008 -3.817,1.344 z"
       style="font-variant-ligatures:none;fill:#985d3b;stroke-width:0;stroke-miterlimit:2"
       id="path197412" /><path
       stroke-miterlimit="2"
       d="m 802.06,420.46 c 3.1181,0 5.3222,-1.7203 6.0749,-4.704 h -2.016 c -0.64512,1.7472 -1.6934,2.6342 -3.0912,2.6342 h -1.6934 c -2.231,0 -3.3869,-1.1558 -3.4944,-4.5427 h 10.51 v -0.5376 c 0,-4.6502 -2.4192,-7.0963 -6.2899,-7.0963 -3.8707,0 -6.2899,2.4461 -6.2899,7.0963 0,4.4621 2.2579,7.1501 6.2899,7.1501 z m -4.1664,-8.4941 c 0.2688,-2.7686 1.3978,-3.7363 3.4406,-3.7363 h 1.4515 c 2.0429,0 3.1718,0.96768 3.4406,3.7363 z"
       style="font-variant-ligatures:none;fill:#985d3b;stroke-width:0;stroke-miterlimit:2"
       id="path197414" /><path
       stroke-miterlimit="2"
       d="m 812.38,420.33 v -13.978 h -2.016 v 13.978 z m -2.016,-15.187 h 2.016 v -2.016 h -2.016 z"
       style="font-variant-ligatures:none;fill:#985d3b;stroke-width:0;stroke-miterlimit:2"
       id="path197416" /><path
       stroke-miterlimit="2"
       d="m 816.42,407.56 v -1.2096 h -2.016 v 13.978 h 2.016 v -9.0048 c 0,-1.9085 0.9408,-3.0912 2.6342,-3.0912 h 1.1827 v -2.016 c -1.7472,0 -2.9837,0.43008 -3.817,1.344 z"
       style="font-variant-ligatures:none;fill:#985d3b;stroke-width:0;stroke-miterlimit:2"
       id="path197418" /><path
       stroke-miterlimit="2"
       d="m 833.92,420.46 c 3.1181,0 5.3222,-1.7203 6.0749,-4.704 h -2.016 c -0.64512,1.7472 -1.6934,2.6342 -3.0912,2.6342 h -1.7472 c -2.3386,0 -3.4944,-1.2902 -3.4944,-5.0803 0,-3.7901 1.1558,-5.0803 3.4944,-5.0803 h 1.801 c 1.3978,0 2.3386,0.83328 2.9568,2.4192 h 2.016 c -0.8064,-2.9837 -3.0374,-4.4352 -5.9942,-4.4352 -3.8707,0 -6.2899,2.4461 -6.2899,7.0963 0,4.4621 2.2579,7.1501 6.2899,7.1501 z"
       style="font-variant-ligatures:none;fill:#985d3b;stroke-width:0;stroke-miterlimit:2"
       id="path197420" /><path
       stroke-miterlimit="2"
       d="m 848.71,420.46 c 4.1664,0 6.72,-2.5536 6.72,-7.1501 0,-4.4083 -2.3654,-7.0963 -6.72,-7.0963 -4.1664,0 -6.6931,2.4998 -6.6931,7.0963 0,4.5158 2.2848,7.1501 6.6931,7.1501 z m -4.6771,-7.177 c 0,-3.1718 1.5053,-5.0534 3.6557,-5.0534 h 2.0698 c 2.1504,0 3.6557,1.8816 3.6557,5.0534 0,3.1718 -1.5053,5.0534 -3.6557,5.0534 h -2.0698 c -2.1504,0 -3.6557,-1.8816 -3.6557,-5.0534 z"
       style="font-variant-ligatures:none;fill:#985d3b;stroke-width:0;stroke-miterlimit:2"
       id="path197422" /><path
       stroke-miterlimit="2"
       d="m 859.47,407.56 v -1.2096 h -2.016 v 13.978 h 2.016 v -9.0048 c 0,-1.9085 0.9408,-3.0912 2.6342,-3.0912 h 2.4461 c 1.6934,0 2.5805,1.1827 2.5805,3.6826 v 8.4134 h 2.016 v -7.7952 c 0,-4.1395 -1.6128,-6.3168 -5.8598,-6.3168 -1.7472,0 -2.9837,0.43008 -3.817,1.344 z"
       style="font-variant-ligatures:none;fill:#985d3b;stroke-width:0;stroke-miterlimit:2"
       id="path197424" /><path
       stroke-miterlimit="2"
       d="m 874.7,420.33 h 1.8816 v -2.016 H 874.7 c -1.0483,0 -1.2634,-0.21504 -1.2634,-1.2634 v -8.6822 h 3.145 v -2.016 h -3.145 v -3.2256 h -2.016 v 13.924 c 0,2.0429 1.2365,3.2794 3.2794,3.2794 z"
       style="font-variant-ligatures:none;fill:#985d3b;stroke-width:0;stroke-miterlimit:2"
       id="path197426" /><path
       stroke-miterlimit="2"
       d="m 884.38,420.46 c 3.1181,0 5.3222,-1.7203 6.0749,-4.704 h -2.016 c -0.64512,1.7472 -1.6934,2.6342 -3.0912,2.6342 h -1.6934 c -2.231,0 -3.3869,-1.1558 -3.4944,-4.5427 h 10.51 v -0.5376 c 0,-4.6502 -2.4192,-7.0963 -6.2899,-7.0963 -3.8707,0 -6.2899,2.4461 -6.2899,7.0963 0,4.4621 2.2579,7.1501 6.2899,7.1501 z m -4.1664,-8.4941 c 0.2688,-2.7686 1.3978,-3.7363 3.4406,-3.7363 h 1.4515 c 2.0429,0 3.1718,0.96768 3.4406,3.7363 z"
       style="font-variant-ligatures:none;fill:#985d3b;stroke-width:0;stroke-miterlimit:2"
       id="path197428" /><path
       stroke-miterlimit="2"
       d="m 894.7,407.56 v -1.2096 h -2.016 v 13.978 h 2.016 v -9.0048 c 0,-1.9085 0.9408,-3.0912 2.6342,-3.0912 h 2.4461 c 1.6934,0 2.5805,1.1827 2.5805,3.6826 v 8.4134 h 2.016 v -7.7952 c 0,-4.1395 -1.6128,-6.3168 -5.8598,-6.3168 -1.7472,0 -2.9837,0.43008 -3.817,1.344 z"
       style="font-variant-ligatures:none;fill:#985d3b;stroke-width:0;stroke-miterlimit:2"
       id="path197430" /><path
       stroke-miterlimit="2"
       d="m 909.93,420.33 h 1.8816 v -2.016 H 909.93 c -1.0483,0 -1.2634,-0.21504 -1.2634,-1.2634 v -8.6822 h 3.145 v -2.016 h -3.145 v -3.2256 h -2.016 v 13.924 c 0,2.0429 1.2365,3.2794 3.2794,3.2794 z"
       style="font-variant-ligatures:none;fill:#985d3b;stroke-width:0;stroke-miterlimit:2"
       id="path197432" /><path
       stroke-miterlimit="2"
       d="m 267.75,382.8 h -6.8555 v -37.811 h 6.8555 z"
       style="font-variant-ligatures:none;fill:#889e37;stroke-width:0;stroke-miterlimit:2"
       id="path197435" /><path
       stroke-miterlimit="2"
       d="m 313.84,367.35 h -21.674 v -6.9082 h 21.674 z m 3.0586,-15.504 h -27.475 v 30.955 h -6.8555 v -34.356 q 0,-0.71191 0.26367,-1.3447 0.26368,-0.63281 0.71191,-1.1074 0.47461,-0.47461 1.1074,-0.73829 0.63281,-0.26367 1.3711,-0.26367 h 30.876 z"
       style="font-variant-ligatures:none;fill:#889e37;stroke-width:0;stroke-miterlimit:2"
       id="path197437" /><path
       stroke-miterlimit="2"
       d="m 366.97,357.7 q 0,2.3467 -0.58008,4.1924 -0.58008,1.8457 -1.582,3.2695 -0.97559,1.3975 -2.2676,2.3994 -1.292,1.002 -2.7158,1.6611 -1.3975,0.63281 -2.8476,0.92285 -1.4238,0.29004 -2.6895,0.29004 l 14.317,12.366 h -10.6 l -14.291,-12.366 h -4.9307 v -6.8555 h 15.504 q 1.292,-0.10547 2.3467,-0.52734 1.081,-0.44825 1.8457,-1.1865 0.79102,-0.73828 1.2129,-1.7666 0.42188,-1.0547 0.42188,-2.3994 v -4.3242 q 0,-0.58008 -0.15821,-0.87012 -0.13183,-0.3164 -0.36913,-0.44824 -0.21094,-0.1582 -0.47462,-0.18457 -0.2373,-0.0264 -0.44823,-0.0264 h -22.623 v 30.955 h -6.8555 v -34.356 q 0,-0.71191 0.26367,-1.3447 0.26367,-0.63281 0.71191,-1.1074 0.47461,-0.47461 1.1074,-0.73829 0.63282,-0.26367 1.3711,-0.26367 h 26.024 q 2.2939,0 3.876,0.84375 1.582,0.81739 2.5576,2.083 1.002,1.2393 1.4238,2.6894 0.44825,1.4502 0.44825,2.7158 z"
       style="font-variant-ligatures:none;fill:#889e37;stroke-width:0;stroke-miterlimit:2"
       id="path197439" /><path
       stroke-miterlimit="2"
       d="m 417.76,382.8 h -6.8555 v -9.2812 h -24.1 V 382.8 h -6.8555 v -18.905 q 0,-4.1396 1.4238,-7.6201 1.4238,-3.4805 3.9551,-5.9854 2.5312,-2.5049 5.9854,-3.9024 3.4541,-1.3975 7.541,-1.3975 h 15.451 q 0.71191,0 1.3447,0.26367 0.63282,0.26368 1.1074,0.73829 0.47461,0.47461 0.73828,1.1074 0.26367,0.63281 0.26367,1.3447 z M 386.8,366.66 h 24.1 v -14.818 h -12.05 q -0.3164,0 -1.3447,0.10547 -1.002,0.0791 -2.3467,0.44824 -1.3184,0.36914 -2.7949,1.1338 -1.4766,0.76465 -2.7158,2.1094 -1.2393,1.3447 -2.0566,3.375 -0.79101,2.0039 -0.79101,4.8779 z"
       style="font-variant-ligatures:none;fill:#889e37;stroke-width:0;stroke-miterlimit:2"
       id="path197441" /><path
       stroke-miterlimit="2"
       d="m 476.45,382.8 h -6.9082 v -22.518 l -12.155,21.384 q -0.44825,0.81738 -1.2656,1.2393 -0.79102,0.42187 -1.7139,0.42187 -0.89648,0 -1.6875,-0.42187 -0.76465,-0.42188 -1.2129,-1.2393 l -12.208,-21.384 V 382.8 h -6.8555 v -34.884 q 0,-1.1865 0.68554,-2.1094 0.71192,-0.92286 1.8457,-1.2393 0.55371,-0.13184 1.1074,-0.0791 0.55371,0.0264 1.0547,0.2373 0.52734,0.18457 0.94922,0.55371 0.42187,0.34278 0.71191,0.84375 l 15.609,27.132 15.609,-27.132 q 0.60646,-1.002 1.6611,-1.4238 1.081,-0.42187 2.2412,-0.13183 1.1074,0.3164 1.8193,1.2393 0.71191,0.92285 0.71191,2.1094 z"
       style="font-variant-ligatures:none;fill:#889e37;stroke-width:0;stroke-miterlimit:2"
       id="path197443" /><path
       stroke-miterlimit="2"
       d="m 522.27,367.35 h -21.647 v -6.9082 h 21.647 z m 3.085,15.451 h -24.732 q -1.4238,0 -3.1113,-0.50098 -1.6875,-0.50097 -3.1377,-1.6348 -1.4238,-1.1602 -2.3994,-2.9795 -0.94922,-1.8457 -0.94922,-4.5088 v -24.732 q 0,-0.71191 0.26368,-1.3447 0.26367,-0.63281 0.71191,-1.1074 0.47461,-0.47461 1.1074,-0.73829 0.63282,-0.26367 1.3711,-0.26367 h 30.876 v 6.8555 h -27.475 v 21.331 q 0,1.3447 0.71192,2.0566 0.71191,0.71191 2.083,0.71191 h 24.68 z"
       style="font-variant-ligatures:none;fill:#889e37;stroke-width:0;stroke-miterlimit:2"
       id="path197445" /><path
       stroke-miterlimit="2"
       d="m 580.18,366.98 h -24.732 v -6.1699 h 24.732 z"
       style="font-variant-ligatures:none;fill:#889e37;stroke-width:0;stroke-miterlimit:2"
       id="path197447" /><path
       stroke-miterlimit="2"
       d="m 649.42,357.7 q 0,2.3467 -0.58008,4.1924 -0.58008,1.8457 -1.582,3.2695 -0.97559,1.3975 -2.2676,2.3994 -1.292,1.002 -2.7158,1.6611 -1.3975,0.63281 -2.8476,0.92285 -1.4238,0.29004 -2.6895,0.29004 l 14.317,12.366 h -10.6 l -14.291,-12.366 h -4.9307 v -6.8555 h 15.504 q 1.292,-0.10547 2.3467,-0.52734 1.081,-0.44825 1.8457,-1.1865 0.79102,-0.73828 1.2129,-1.7666 0.42187,-1.0547 0.42187,-2.3994 v -4.3242 q 0,-0.58008 -0.15821,-0.87012 -0.13183,-0.3164 -0.36913,-0.44824 -0.21094,-0.1582 -0.47462,-0.18457 -0.2373,-0.0264 -0.44823,-0.0264 h -22.623 v 30.955 h -6.8555 v -34.356 q 0,-0.71191 0.26367,-1.3447 0.26368,-0.63281 0.71191,-1.1074 0.47461,-0.47461 1.1074,-0.73829 0.63282,-0.26367 1.3711,-0.26367 h 26.024 q 2.2939,0 3.876,0.84375 1.582,0.81739 2.5576,2.083 1.002,1.2393 1.4238,2.6894 0.44824,1.4502 0.44824,2.7158 z"
       style="font-variant-ligatures:none;fill:#889e37;stroke-width:0;stroke-miterlimit:2"
       id="path197449" /><path
       stroke-miterlimit="2"
       d="m 694.19,367.35 h -21.65 v -6.9082 h 21.647 z m 3.085,15.451 h -24.732 q -1.4238,0 -3.1113,-0.50098 -1.6875,-0.50097 -3.1377,-1.6348 -1.4238,-1.1602 -2.3994,-2.9795 -0.94923,-1.8457 -0.94923,-4.5088 v -24.732 q 0,-0.71191 0.26368,-1.3447 0.26367,-0.63281 0.71191,-1.1074 0.47462,-0.47461 1.1074,-0.73829 0.63281,-0.26367 1.3711,-0.26367 h 30.876 v 6.8555 h -27.475 v 21.331 q 0,1.3447 0.71191,2.0566 0.71192,0.71191 2.083,0.71191 h 24.68 z"
       style="font-variant-ligatures:none;fill:#889e37;stroke-width:0;stroke-miterlimit:2"
       id="path197451" /><path
       stroke-miterlimit="2"
       d="m 746.9,371.67 q 0,2.0303 -0.52734,3.665 -0.50098,1.6084 -1.3447,2.8476 -0.84375,1.2393 -1.9775,2.1094 -1.1338,0.87011 -2.3467,1.4238 -1.2129,0.55371 -2.4785,0.81738 -1.2393,0.26367 -2.3467,0.26367 h -26.45 v -6.8555 h 26.446 q 1.9775,0 3.0586,-1.1602 1.1074,-1.1602 1.1074,-3.1113 0,-0.94922 -0.29003,-1.7402 -0.29005,-0.79101 -0.84375,-1.3711 -0.52735,-0.58008 -1.3184,-0.89649 -0.76465,-0.3164 -1.7139,-0.3164 h -15.768 q -1.6611,0 -3.5859,-0.58008 -1.9248,-0.60645 -3.5859,-1.9248 -1.6348,-1.3184 -2.7422,-3.4541 -1.081,-2.1357 -1.081,-5.2207 0,-3.085 1.081,-5.1943 1.1074,-2.1357 2.7422,-3.4541 1.6611,-1.3447 3.5859,-1.9248 1.9248,-0.60645 3.5859,-0.60645 h 23.335 v 6.8555 h -23.335 q -1.9512,0 -3.0586,1.1865 -1.0811,1.1865 -1.0811,3.1377 0,1.9775 1.0811,3.1377 1.1074,1.1338 3.0586,1.1338 h 15.821 q 1.1074,0.0264 2.3467,0.31641 1.2392,0.26367 2.4521,0.84375 1.2393,0.58008 2.3467,1.4766 1.1074,0.87012 1.9512,2.1094 0.87012,1.2393 1.3711,2.8476 0.50097,1.6084 0.50097,3.6387 z"
       style="font-variant-ligatures:none;fill:#889e37;stroke-width:0;stroke-miterlimit:2"
       id="path197453" /><path
       stroke-miterlimit="2"
       d="m 766.3,382.8 h -6.8555 V 344.989 H 766.3 Z"
       style="font-variant-ligatures:none;fill:#889e37;stroke-width:0;stroke-miterlimit:2"
       id="path197455" /><path
       stroke-miterlimit="2"
       d="m 813.47,347.04 q 0.39551,0.92286 0.2373,1.9512 -0.1582,1.002 -0.84375,1.7139 l -22.623,25.233 h 23.177 v 6.8555 h -30.902 q -1.002,0 -1.8721,-0.55371 -0.84375,-0.58008 -1.2656,-1.5029 -0.44823,-0.92285 -0.29003,-1.9248 0.18457,-1.002 0.84375,-1.7402 l 22.676,-25.233 h -23.23 v -6.8555 h 30.955 q 1.002,0 1.8457,0.58008 0.87011,0.55371 1.292,1.4766 z"
       style="font-variant-ligatures:none;fill:#889e37;stroke-width:0;stroke-miterlimit:2"
       id="path197457" /><path
       stroke-miterlimit="2"
       d="m 857.45,367.35 h -21.647 v -6.9082 h 21.647 z m 3.085,15.451 h -24.732 q -1.4238,0 -3.1113,-0.50098 -1.6875,-0.50097 -3.1377,-1.6348 -1.4238,-1.1602 -2.3994,-2.9795 -0.94922,-1.8457 -0.94922,-4.5088 v -24.732 q 0,-0.71191 0.26368,-1.3447 0.26367,-0.63281 0.71191,-1.1074 0.47461,-0.47461 1.1074,-0.73829 0.63282,-0.26367 1.3711,-0.26367 h 30.876 v 6.8555 h -27.475 v 21.331 q 0,1.3447 0.71192,2.0566 0.71191,0.71191 2.083,0.71191 h 24.68 z"
       style="font-variant-ligatures:none;fill:#889e37;stroke-width:0;stroke-miterlimit:2"
       id="path197459" /><path
       stroke-miterlimit="2"
       d="m 911.72,357.7 q 0,2.3467 -0.58008,4.1924 -0.58007,1.8457 -1.582,3.2695 -0.97558,1.3975 -2.2676,2.3994 -1.292,1.002 -2.7158,1.6611 -1.3975,0.63281 -2.8477,0.92285 -1.4238,0.29004 -2.6894,0.29004 l 14.317,12.366 h -10.61 l -14.29,-12.38 h -4.9307 v -6.8555 h 15.504 q 1.292,-0.10547 2.3467,-0.52734 1.0811,-0.44825 1.8457,-1.1865 0.79102,-0.73828 1.2129,-1.7666 0.42188,-1.0547 0.42188,-2.3994 v -4.3242 q 0,-0.58008 -0.15821,-0.87012 -0.13183,-0.3164 -0.36914,-0.44824 -0.21094,-0.1582 -0.47461,-0.18457 -0.23731,-0.0264 -0.44825,-0.0264 h -22.623 v 30.955 h -6.8555 v -34.356 q 0,-0.71191 0.26366,-1.3447 0.26367,-0.63281 0.71192,-1.1074 0.47461,-0.47461 1.1074,-0.73829 0.63281,-0.26367 1.3711,-0.26367 h 26.024 q 2.294,0 3.876,0.84375 1.582,0.81739 2.5576,2.083 1.002,1.2393 1.4238,2.6894 0.44824,1.4502 0.44824,2.7158 z"
       style="font-variant-ligatures:none;fill:#889e37;stroke-width:0;stroke-miterlimit:2"
       id="path197461" /><path
       style="fill:#985d3b;stroke-width:0.75"
       d="m 192.4,339.36 c -19.288,0.003 -35.281,0.0196 -35.539,0.0371 -0.25729,0.0171 -0.67971,0.073 -0.93825,0.12427 -0.25812,0.0509 -0.66637,0.15637 -0.90742,0.23477 -0.24103,0.0784 -0.65344,0.24603 -0.91741,0.37238 -0.26354,0.12677 -0.68596,0.36779 -0.93824,0.53585 -0.25229,0.16805 -0.62008,0.44702 -0.81773,0.61966 -0.19724,0.17264 -0.47663,0.44536 -0.6205,0.6059 -0.14386,0.16055 -0.36821,0.43452 -0.49831,0.60841 -0.13052,0.1743 -0.32901,0.4712 -0.4416,0.66052 -0.11259,0.1889 -0.29482,0.54585 -0.40533,0.79275 -0.11008,0.24686 -0.26354,0.66928 -0.34068,0.93825 -0.0771,0.26896 -0.17514,0.6672 -0.21768,0.8853 l -0.0776,0.39615 -0.0108,19.401 -0.0108,19.401 15.169,4.2e-4 c 10.029,4.1e-4 15.338,0.015 15.669,0.0434 0.27522,0.0234 0.66762,0.0713 0.87194,0.10634 0.20434,0.0346 0.57963,0.11718 0.834,0.18264 0.25438,0.0659 0.6501,0.18682 0.87946,0.26939 0.22934,0.0826 0.66094,0.2698 0.95909,0.41658 0.29816,0.14678 0.70515,0.36946 0.9045,0.4954 0.19933,0.12552 0.54627,0.36654 0.77145,0.53501 0.22519,0.16888 0.66262,0.56003 0.972,0.86985 0.30984,0.30941 0.70099,0.74685 0.86986,0.972 0.16846,0.22518 0.40949,0.57213 0.53542,0.77145 0.12593,0.19932 0.34736,0.60632 0.49248,0.9045 0.1447,0.29816 0.33109,0.72516 0.41366,0.94913 0.083,0.22393 0.20475,0.61799 0.27063,0.8757 0.0663,0.2577 0.15012,0.64676 0.1864,0.86482 0.0363,0.21767 0.0851,0.61174 0.10801,0.8757 0.0271,0.30941 0.0421,5.8564 0.0421,15.648 l 4.2e-4,15.168 h 19.162 c 13.162,0 19.289,-0.0138 19.568,-0.0442 0.22268,-0.0241 0.6205,-0.0917 0.88365,-0.15012 0.26354,-0.0584 0.65386,-0.1693 0.86737,-0.24687 0.21351,-0.0771 0.5421,-0.21267 0.73059,-0.30107 0.18807,-0.0884 0.51874,-0.27063 0.73517,-0.40449 0.21642,-0.13386 0.57463,-0.38947 0.7965,-0.56795 0.22142,-0.17848 0.5471,-0.47747 0.72349,-0.6647 0.17598,-0.18723 0.40158,-0.44661 0.50082,-0.57546 0.0997,-0.12927 0.28731,-0.39907 0.41784,-0.59923 0.13051,-0.20016 0.3386,-0.57546 0.46245,-0.834 0.12384,-0.25854 0.28398,-0.64593 0.35528,-0.8607 0.0717,-0.21476 0.17597,-0.6109 0.23185,-0.88028 0.0555,-0.26937 0.11968,-0.75975 0.1422,-1.0896 0.0263,-0.38531 0.0409,-13.112 0.0409,-35.566 0,-21.815 -0.015,-35.186 -0.0401,-35.549 -0.0217,-0.32109 -0.0788,-0.78105 -0.12678,-1.0216 -0.0479,-0.24103 -0.16137,-0.66094 -0.25186,-0.93367 -0.0909,-0.27272 -0.25646,-0.68555 -0.36863,-0.9174 -0.11217,-0.23186 -0.32067,-0.59965 -0.46371,-0.8169 -0.14303,-0.21768 -0.34319,-0.49915 -0.44493,-0.6255 -0.10175,-0.12677 -0.36654,-0.41492 -0.58881,-0.64052 -0.22184,-0.2256 -0.57254,-0.5371 -0.77895,-0.69222 -0.20641,-0.15471 -0.54084,-0.38072 -0.74309,-0.50206 -0.20224,-0.12093 -0.54919,-0.29982 -0.77145,-0.39741 -0.22184,-0.0976 -0.58422,-0.23477 -0.80482,-0.30566 -0.2206,-0.0705 -0.59048,-0.16638 -0.82148,-0.2135 -0.23102,-0.0471 -0.68888,-0.10425 -1.0166,-0.12635 -0.38156,-0.0263 -13.226,-0.0388 -35.666,-0.0354 z m 15.21,16.558 10.269,0.0108 0.35945,0.12885 c 0.19766,0.0705 0.49081,0.21601 0.65178,0.32318 0.16096,0.10675 0.40282,0.31317 0.53751,0.45828 0.13427,0.14512 0.30649,0.36862 0.3828,0.49706 0.0763,0.12802 0.18348,0.36196 0.23853,0.52 0.055,0.15804 0.11926,0.45536 0.14261,0.66053 0.028,0.24436 0.043,3.7984 0.043,10.308 l 4.3e-4,9.9352 h -5.8797 v -12.865 l -8.4338,8.4338 -8.4338,8.4338 -2.0537,-2.0537 c -1.1296,-1.1296 -2.0537,-2.0729 -2.0537,-2.0954 0,-0.0229 3.7859,-3.8276 8.4128,-8.4548 l 8.415,-8.4128 h -12.88 v -5.84 z m -46.57,34.94 c -14.039,0.003 -17.792,0.015 -18.056,0.0567 -0.18348,0.0288 -0.48289,0.0947 -0.66512,0.14636 -0.18222,0.0513 -0.49664,0.16514 -0.69847,0.25271 -0.20182,0.0876 -0.55586,0.28314 -0.7869,0.43451 -0.2306,0.15095 -0.59464,0.4441 -0.80858,0.65135 -0.21392,0.20684 -0.5054,0.5396 -0.64801,0.73935 -0.1422,0.19932 -0.34194,0.52792 -0.44369,0.72974 -0.10174,0.20225 -0.23935,0.53043 -0.30566,0.72975 -0.0667,0.19974 -0.15512,0.53168 -0.19682,0.7381 l -0.0757,0.38249 v 35.738 l 0.0788,0.37529 c 0.0434,0.20642 0.14345,0.5617 0.22226,0.78938 0.0788,0.2281 0.19682,0.52 0.26188,0.64927 0.0655,0.12927 0.23644,0.412 0.3803,0.62842 0.14762,0.22143 0.43577,0.56712 0.66011,0.79147 0.22435,0.22435 0.57004,0.51249 0.79148,0.66011 0.21642,0.14387 0.4979,0.31442 0.6255,0.37864 0.12761,0.0646 0.3974,0.17555 0.59923,0.24686 0.20182,0.0709 0.4833,0.15596 0.6255,0.18891 0.1422,0.0329 0.44619,0.0809 0.67554,0.10633 0.30399,0.0342 5.2096,0.0433 18.077,0.0337 l 17.66,-0.0129 0.40615,-0.0938 c 0.22352,-0.0517 0.54252,-0.14262 0.7089,-0.20266 0.16638,-0.0596 0.46245,-0.1889 0.6572,-0.28648 0.19515,-0.098 0.51791,-0.29482 0.71724,-0.43702 0.19974,-0.14261 0.53209,-0.43368 0.73892,-0.64718 0.20683,-0.21392 0.48956,-0.5617 0.62842,-0.7731 0.13886,-0.21183 0.31567,-0.51832 0.39281,-0.68095 0.0767,-0.16305 0.19933,-0.48248 0.27188,-0.71016 0.0726,-0.22726 0.1593,-0.59339 0.19224,-0.81314 0.0521,-0.34362 0.0605,-2.8773 0.0605,-18.08 0,-15.327 -0.008,-17.731 -0.0609,-18.057 -0.0338,-0.20725 -0.108,-0.53877 -0.16555,-0.73726 -0.0575,-0.19808 -0.17805,-0.51958 -0.26813,-0.71432 -0.0901,-0.19474 -0.25228,-0.49164 -0.36112,-0.6597 -0.10842,-0.16846 -0.31901,-0.45202 -0.46787,-0.63091 -0.14887,-0.17848 -0.3949,-0.43035 -0.54711,-0.55962 -0.15178,-0.12927 -0.43159,-0.33652 -0.62091,-0.45995 -0.18931,-0.12385 -0.50082,-0.29732 -0.69222,-0.38572 -0.19099,-0.0884 -0.5054,-0.2085 -0.69805,-0.26688 -0.19265,-0.0583 -0.52834,-0.13512 -0.74643,-0.17014 -0.35111,-0.0563 -2.4161,-0.063 -18.118,-0.0596 z"
       id="icon" /></g></svg>