<svg xmlns="http://www.w3.org/2000/svg" viewBox="0 0 120 119.98"><g xmlns="http://www.w3.org/2000/svg" transform="matrix(0 1 -1 0 160 -40.01)"><metadata id="metadata15"><RDF xmlns="http://www.w3.org/1999/02/22-rdf-syntax-ns#"><Work p5:about="" xmlns:p5="http://www.w3.org/1999/02/22-rdf-syntax-ns#" xmlns="http://creativecommons.org/ns#"><format xmlns="http://purl.org/dc/elements/1.1/">image/svg+xml</format><type p5:resource="http://purl.org/dc/dcmitype/StillImage" xmlns="http://purl.org/dc/elements/1.1/" /></Work></RDF></metadata><defs id="defs197334" /><linearGradient spreadMethod="pad" y2="30%" x2="-10%" y1="120%" x1="30%" id="3d_gradient2-logo-3d525a73-a659-4f0c-9f01-633fb5b0070c"><stop id="stop197311" stop-opacity="1" stop-color="#ffffff" offset="0%" /><stop id="stop197313" stop-opacity="1" stop-color="#000000" offset="100%" /></linearGradient><linearGradient gradientTransform="rotate(-30)" spreadMethod="pad" y2="30%" x2="-10%" y1="120%" x1="30%" id="3d_gradient3-logo-3d525a73-a659-4f0c-9f01-633fb5b0070c"><stop id="stop197316" stop-opacity="1" stop-color="#ffffff" offset="0%" /><stop id="stop197318" stop-opacity="1" stop-color="#cccccc" offset="50%" /><stop id="stop197320" stop-opacity="1" stop-color="#000000" offset="100%" /></linearGradient><path style="fill:#985d3b;stroke-width:0.92834765" d="m 106.9034,40.001045 c -23.875241,0.0036 -43.670398,0.02426 -43.98975,0.04593 -0.318469,0.02117 -0.841343,0.09033 -1.161363,0.153818 -0.3195,0.06297 -0.824827,0.193561 -1.123207,0.290601 -0.298343,0.09704 -0.808823,0.304535 -1.135555,0.460934 -0.326212,0.156909 -0.849086,0.455252 -1.161363,0.663267 -0.312278,0.208015 -0.76753,0.553323 -1.012178,0.76702 -0.244146,0.213687 -0.589974,0.551262 -0.76805,0.749984 -0.178075,0.198722 -0.455772,0.537838 -0.616812,0.753075 -0.161561,0.215758 -0.407248,0.583263 -0.546611,0.817596 -0.139364,0.233823 -0.364925,0.675652 -0.501707,0.981264 -0.136263,0.305565 -0.326212,0.828439 -0.421702,1.161363 -0.09549,0.332924 -0.216788,0.825858 -0.269435,1.095821 l -0.09601,0.490354 -0.01342,24.014497 -0.01342,24.014498 18.775831,5.16e-4 c 12.413866,5.16e-4 18.985639,0.01859 19.39504,0.05368 0.340666,0.02891 0.826378,0.08827 1.079297,0.131621 0.252919,0.04284 0.717464,0.145045 1.032323,0.22608 0.314858,0.08156 0.804691,0.231243 1.08858,0.333444 0.283889,0.102202 0.818116,0.333955 1.187171,0.515642 0.369055,0.181687 0.872833,0.457322 1.119587,0.613201 0.246727,0.155369 0.676172,0.453702 0.954899,0.662237 0.278727,0.209045 0.820186,0.693207 1.203138,1.076702 0.383517,0.38299 0.867677,0.92445 1.076697,1.20314 0.20853,0.27873 0.50687,0.70817 0.66275,0.9549 0.15588,0.24672 0.42997,0.75049 0.60959,1.11958 0.17911,0.36906 0.40983,0.89761 0.51203,1.17483 0.10271,0.27718 0.25343,0.76495 0.33499,1.08394 0.0821,0.31898 0.18581,0.80056 0.23072,1.07048 0.0449,0.26943 0.1053,0.7572 0.13369,1.08393 0.0335,0.38299 0.0522,7.24901 0.0522,19.36905 l 5.2e-4,18.7749 h 23.71929 c 16.2925,0 23.87617,-0.0171 24.22059,-0.0547 0.27563,-0.0299 0.76805,-0.11355 1.09378,-0.18581 0.32621,-0.0722 0.80934,-0.20956 1.07363,-0.30557 0.26427,-0.0955 0.67101,-0.26324 0.90431,-0.37267 0.2328,-0.10942 0.6421,-0.33498 0.91,-0.50067 0.26788,-0.1657 0.71127,-0.48209 0.9859,-0.70301 0.27408,-0.22092 0.6772,-0.59101 0.89554,-0.82277 0.21782,-0.23175 0.49707,-0.5528 0.61991,-0.7123 0.12336,-0.16001 0.35564,-0.49397 0.5172,-0.74172 0.16155,-0.24776 0.41912,-0.71231 0.57242,-1.03233 0.15329,-0.32002 0.35151,-0.79953 0.43976,-1.06537 0.0887,-0.26582 0.21782,-0.75618 0.28699,-1.0896 0.0687,-0.33344 0.14814,-0.94042 0.17601,-1.3487 0.0325,-0.47693 0.0506,-16.23031 0.0506,-44.023184 0,-27.002848 -0.0186,-43.552502 -0.0496,-44.002751 -0.0268,-0.397444 -0.0976,-0.966781 -0.15692,-1.264595 -0.0593,-0.298343 -0.19975,-0.818116 -0.31176,-1.1557 -0.11252,-0.337566 -0.31744,-0.848566 -0.45629,-1.135555 -0.13884,-0.286989 -0.39692,-0.742242 -0.57397,-1.011156 -0.17704,-0.269435 -0.4248,-0.617844 -0.55074,-0.774242 -0.12594,-0.15691 -0.4537,-0.513581 -0.72882,-0.792828 -0.27459,-0.279247 -0.70869,-0.664817 -0.96418,-0.856827 -0.2555,-0.1915 -0.66946,-0.471258 -0.9198,-0.621455 -0.25034,-0.149687 -0.67978,-0.371116 -0.9549,-0.491904 -0.27459,-0.120778 -0.72314,-0.2906 -0.99621,-0.378348 -0.27305,-0.08723 -0.73088,-0.205944 -1.01681,-0.264272 -0.28596,-0.05833 -0.8527,-0.129041 -1.25838,-0.156399 -0.47229,-0.03252 -16.37141,-0.04801 -44.14757,-0.04387 z m 18.8269,20.49606 12.71093,0.01342 0.44493,0.15949 c 0.24467,0.08723 0.60752,0.267373 0.80676,0.400025 0.19924,0.132141 0.49862,0.387641 0.66533,0.567257 0.16621,0.179626 0.37938,0.456283 0.47384,0.615263 0.0945,0.158459 0.22711,0.44803 0.29524,0.643651 0.0681,0.195621 0.14763,0.563646 0.17654,0.817596 0.0346,0.302474 0.0532,4.701709 0.0532,12.75921 l 5.2e-4,12.297822 h -7.27787 V 72.846895 l -10.43927,10.43927 -10.43927,10.439269 -2.5421,-2.542094 c -1.39827,-1.398277 -2.54209,-2.56586 -2.54209,-2.593711 0,-0.02839 4.6862,-4.737822 10.41327,-10.465263 L 128.94631,67.71109 H 113.02237 V 60.483904 Z M 68.091974,103.7414 c -17.37774,0.004 -22.022264,0.0186 -22.34997,0.0702 -0.227111,0.0356 -0.597717,0.11717 -0.823278,0.18117 -0.22556,0.0635 -0.614752,0.2044 -0.86457,0.31279 -0.249818,0.1084 -0.688045,0.35047 -0.974022,0.53784 -0.285439,0.18685 -0.73605,0.54971 -1.000852,0.80624 -0.264793,0.25602 -0.625586,0.66792 -0.802111,0.91516 -0.176015,0.24673 -0.423252,0.65346 -0.549192,0.90328 -0.125939,0.25034 -0.296273,0.65656 -0.378348,0.90328 -0.08259,0.24724 -0.19201,0.65811 -0.243626,0.91361 l -0.09376,0.47346 v 44.23576 l 0.09755,0.46455 c 0.05368,0.2555 0.177556,0.69527 0.275116,0.97708 0.09755,0.28234 0.243627,0.64366 0.324151,0.80367 0.08104,0.16001 0.292662,0.50997 0.470738,0.77785 0.182717,0.27408 0.539388,0.70198 0.817085,0.97968 0.277697,0.2777 0.705591,0.63436 0.979685,0.81709 0.267884,0.17808 0.616293,0.38918 0.774242,0.46868 0.157949,0.08 0.491904,0.21729 0.741722,0.30556 0.249818,0.0877 0.598227,0.19304 0.774242,0.23382 0.176015,0.0408 0.552293,0.10014 0.836181,0.13163 0.376278,0.0423 6.448396,0.0537 22.375964,0.0418 l 21.859803,-0.016 0.502737,-0.11613 c 0.276666,-0.0641 0.67153,-0.17654 0.877474,-0.25086 0.205945,-0.0738 0.57242,-0.23382 0.813474,-0.3546 0.241566,-0.1213 0.641071,-0.36493 0.887798,-0.54094 0.247237,-0.17653 0.658625,-0.53681 0.914636,-0.80108 0.25602,-0.26479 0.605969,-0.69527 0.777853,-0.95694 0.171884,-0.2622 0.390732,-0.64158 0.486222,-0.84289 0.09497,-0.20182 0.246727,-0.5972 0.336535,-0.87902 0.08981,-0.28131 0.197172,-0.7345 0.237955,-1.00651 0.06452,-0.42533 0.07484,-3.56152 0.07484,-22.37968 0,-18.97172 -0.0098,-21.94707 -0.07536,-22.3509 -0.04181,-0.25653 -0.133682,-0.66688 -0.204915,-0.91258 -0.07123,-0.24517 -0.220399,-0.64313 -0.331893,-0.88417 -0.111495,-0.24106 -0.312278,-0.60856 -0.446999,-0.81658 -0.134202,-0.20852 -0.394864,-0.55951 -0.579132,-0.78094 -0.184267,-0.22092 -0.488803,-0.53269 -0.677201,-0.6927 -0.187879,-0.16001 -0.534227,-0.41654 -0.768561,-0.56932 -0.234333,-0.1533 -0.619913,-0.36802 -0.856828,-0.47745 -0.236403,-0.10943 -0.625585,-0.25808 -0.86405,-0.33034 -0.238465,-0.0722 -0.653974,-0.16724 -0.923929,-0.21059 -0.434606,-0.0697 -2.990672,-0.078 -22.427023,-0.0738 z" id="icon" /></g></svg>