<svg xmlns="http://www.w3.org/2000/svg" viewBox="0 0 120 119.98"><g xmlns="http://www.w3.org/2000/svg" transform="matrix(0 1 -1 0 160 -40.01)"><metadata id="metadata10"><RDF xmlns="http://www.w3.org/1999/02/22-rdf-syntax-ns#"><Work p5:about="" xmlns:p5="http://www.w3.org/1999/02/22-rdf-syntax-ns#" xmlns="http://creativecommons.org/ns#"><format xmlns="http://purl.org/dc/elements/1.1/">image/svg+xml</format><type p5:resource="http://purl.org/dc/dcmitype/StillImage" xmlns="http://purl.org/dc/elements/1.1/" /></Work></RDF></metadata><defs id="defs8" /><path id="path2" d="m106.9 40 0.002 0.0025c-23.875 0.0037-43.671 0.02327-43.99 0.04493-0.31846 0.02117-0.84209 0.09085-1.1621 0.15429-0.3195 0.063-0.82467 0.19398-1.1231 0.29102-0.29833 0.09704-0.80802 0.30455-1.1348 0.46094-0.32621 0.15692-0.84983 0.45409-1.1621 0.66211-0.31228 0.20801-0.76708 0.55388-1.0117 0.76757-0.24416 0.21369-0.58951 0.55129-0.76758 0.75001-0.17808 0.19873-0.45615 0.53671-0.61719 0.75195-0.16156 0.21575-0.40751 0.58402-0.54687 0.81836-0.13936 0.23382-0.36518 0.67486-0.50195 0.98047-0.13627 0.30556-0.3264 0.82918-0.42188 1.1621-0.09543 0.33292-0.21689 0.82575-0.26953 1.0957l-0.09568 0.49023-0.01362 24.016-0.01362 24.014h18.777c12.414 0.000508 18.985 0.01956 19.395 0.05471 0.34067 0.02896 0.8252 0.08751 1.0781 0.13086 0.25292 0.04283 0.71834 0.14553 1.0332 0.22655 0.31486 0.08157 0.80401 0.23178 1.0879 0.33398 0.28388 0.10224 0.81844 0.33394 1.1875 0.51563 0.36906 0.18168 0.87239 0.45739 1.1191 0.61328 0.24673 0.15537 0.67636 0.45358 0.95508 0.66211 0.27873 0.20904 0.82016 0.69268 1.2031 1.0762 0.38352 0.38299 0.8691 0.92444 1.0781 1.2031 0.20852 0.27872 0.50624 0.70835 0.66211 0.95507 0.15588 0.24672 0.42975 0.75005 0.60937 1.1191 0.17911 0.36906 0.40953 0.89855 0.51172 1.1758 0.10274 0.27718 0.25439 0.765 0.33594 1.084 0.0821 0.31898 0.18557 0.8004 0.23048 1.0703 0.0449 0.26943 0.10447 0.75725 0.1328 1.084 0.0335 0.38298 0.0527 7.2491 0.0527 19.369v18.773h23.719c16.292 0 23.876-0.0171 24.221-0.0547 0.27563-0.0298 0.76803-0.11325 1.0938-0.18554 0.32621-0.0723 0.80992-0.20867 1.0742-0.30469 0.26427-0.0954 0.67098-0.26362 0.9043-0.37304 0.23279-0.10942 0.64225-0.33431 0.91015-0.5 0.26788-0.16569 0.71169-0.48221 0.98632-0.70313 0.27408-0.22092 0.6762-0.59246 0.89453-0.82421 0.21782-0.23175 0.49825-0.55145 0.62111-0.71094 0.1234-0.16001 0.35601-0.49443 0.51757-0.74218 0.16154-0.24776 0.41897-0.7132 0.57227-1.0332 0.15329-0.32002 0.35119-0.7986 0.43944-1.0644 0.0888-0.26583 0.21794-0.75641 0.28711-1.0898 0.0687-0.33343 0.14792-0.93939 0.17579-1.3477 0.0324-0.47693 0.0507-16.231 0.0507-44.023 0-27.003-0.0198-43.554-0.0507-44.004-0.0269-0.39744-0.0969-0.96586-0.15626-1.2637-0.0593-0.29835-0.20048-0.81867-0.31249-1.1563-0.11252-0.33757-0.31622-0.84779-0.45508-1.1348-0.13884-0.287-0.39717-0.7428-0.57423-1.0117-0.17704-0.26944-0.42483-0.61704-0.55078-0.77344-0.12593-0.15692-0.45339-0.51372-0.7285-0.79297-0.27461-0.27925-0.70936-0.66542-0.96485-0.85742-0.2555-0.1915-0.66959-0.4709-0.91992-0.62109-0.25033-0.14969-0.67996-0.3714-0.95509-0.4922-0.27459-0.12081-0.72302-0.29116-0.99609-0.3789-0.27304-0.08727-0.72969-0.20535-1.0156-0.26368-0.28596-0.0583-0.85408-0.12889-1.2598-0.15625-0.47228-0.03255-16.37-0.04914-44.146-0.04493zm6.1191 20.484 12.709 0.01362 12.711 0.01114 0.44531 0.16016c0.24467 0.08726 0.6074 0.26774 0.80664 0.40039 0.19925 0.13213 0.49736 0.38679 0.66406 0.5664 0.16622 0.17963 0.38016 0.45625 0.47461 0.61524 0.0944 0.15846 0.22679 0.44891 0.29492 0.64453 0.0682 0.19562 0.14883 0.56246 0.17775 0.81641 0.0347 0.30246 0.0527 4.7023 0.0527 12.76v12.299h-7.2774v-15.924l-10.439 10.438-10.439 10.439-2.543-2.541c-1.3983-1.3983-2.541-2.5659-2.541-2.5938 0-0.02835 4.685-4.7374 10.412-10.465l10.42-10.414h-15.93zm-44.928 43.256c-17.378 0.004-22.022 0.0187-22.35 0.0703-0.22711 0.0357-0.59866 0.11574-0.82422 0.17968-0.22556 0.0635-0.61346 0.20411-0.86328 0.31251-0.24982 0.10843-0.68864 0.35169-0.97462 0.53906-0.28544 0.18684-0.73519 0.5501-0.99999 0.80663-0.2648 0.25603-0.62621 0.66682-0.80274 0.91407-0.17601 0.24672-0.42289 0.65448-0.54883 0.90429-0.12595 0.25035-0.29684 0.65564-0.37892 0.90235-0.08256 0.24723-0.19251 0.65855-0.24413 0.91406l-0.0937 0.47266v44.236l0.09766 0.46484c0.05372 0.25551 0.17784 0.69474 0.2754 0.97656 0.09754 0.28234 0.24368 0.64468 0.32422 0.80469 0.08108 0.16001 0.29263 0.50947 0.4707 0.77735 0.18272 0.27409 0.53871 0.70082 0.81641 0.97852 0.27769 0.2777 0.70637 0.63563 0.98046 0.81835 0.26788 0.17809 0.61549 0.38925 0.77344 0.46875 0.15796 0.08 0.49237 0.21642 0.7422 0.30469 0.24981 0.0878 0.59938 0.19359 0.77539 0.23438 0.17601 0.0407 0.55204 0.0994 0.83593 0.13086 0.37628 0.0423 6.4474 0.0548 22.375 0.0429l21.859-0.0156 0.50391-0.11722c0.27667-0.064 0.67101-0.17568 0.87696-0.24999 0.20594-0.0738 0.5734-0.23469 0.81446-0.35547 0.24156-0.12131 0.63999-0.36501 0.88672-0.54102 0.24724-0.17652 0.65805-0.53651 0.91406-0.80078 0.25601-0.26479 0.60741-0.69536 0.77929-0.95703 0.17188-0.2622 0.39083-0.64245 0.48633-0.84376 0.09494-0.20182 0.24612-0.59707 0.33594-0.87889 0.08986-0.2813 0.19749-0.73386 0.23828-1.0059 0.06449-0.42533 0.07427-3.5608 0.07427-22.379 0-18.972-0.0087-21.948-0.07427-22.352-0.04184-0.25653-0.13384-0.66642-0.20508-0.91211-0.07117-0.24518-0.22054-0.64371-0.33203-0.88476-0.11153-0.24105-0.31254-0.60838-0.44727-0.8164-0.1342-0.20852-0.39581-0.55982-0.58008-0.78125-0.18427-0.22092-0.48738-0.53335-0.67578-0.69336-0.18788-0.16001-0.5352-0.41558-0.76954-0.56836-0.23433-0.1533-0.62051-0.36715-0.85742-0.47657-0.23641-0.10942-0.62482-0.25976-0.86328-0.33202-0.23847-0.0722-0.65388-0.16565-0.92383-0.20899-0.4346-0.0697-2.9914-0.0785-22.428-0.0743z" fill="#889e37" /></g></svg>